<?xml version="1.0" encoding="utf-8"?>
<!-- Generator: Adobe Illustrator 16.0.0, SVG Export Plug-In . SVG Version: 6.00 Build 0)  -->
<!DOCTYPE svg PUBLIC "-//W3C//DTD SVG 1.1//EN" "http://www.w3.org/Graphics/SVG/1.1/DTD/svg11.dtd">
<svg version="1.1" id="Layer_1" xmlns="http://www.w3.org/2000/svg" xmlns:xlink="http://www.w3.org/1999/xlink" x="0px" y="0px"
	 width="50px" height="30px" viewBox="0 0 50 30" enable-background="new 0 0 50 30" xml:space="preserve">
<path fill="#FFFFFF" d="M50,28c0,1.104-0.896,2-2,2H2c-1.104,0-2-0.896-2-2V2c0-1.104,0.896-2,2-2h46c1.104,0,2,0.896,2,2V28z"/>
<g>
	<path fill="#231F20" d="M33.094,14.968c0-0.742,0.006-1.482-0.004-2.225c0-0.163,0.045-0.209,0.209-0.207
		c0.764,0.009,1.529,0.008,2.293,0c0.146,0,0.211,0.031,0.197,0.19c-0.018,0.206,0.064,0.479-0.041,0.603
		c-0.107,0.129-0.391,0.035-0.598,0.039c-0.31,0.006-0.617,0.006-0.926-0.001c-0.123-0.003-0.181,0.021-0.173,0.161
		c0.009,0.254,0.009,0.51,0,0.764c-0.008,0.137,0.041,0.167,0.171,0.165c0.438-0.008,0.879,0.004,1.319-0.007
		c0.156-0.004,0.203,0.047,0.187,0.195c-0.021,0.205,0.088,0.48-0.043,0.599c-0.109,0.101-0.381,0.03-0.58,0.032
		c-0.293,0.003-0.588,0.006-0.881-0.002c-0.125-0.003-0.179,0.023-0.173,0.163c0.009,0.323,0.009,0.649-0.002,0.973
		c-0.006,0.15,0.033,0.199,0.188,0.195c0.457-0.01,0.912,0.002,1.367-0.008c0.144-0.002,0.195,0.032,0.181,0.178
		c-0.021,0.207,0.084,0.477-0.039,0.604c-0.125,0.129-0.396,0.037-0.599,0.039c-0.61,0.006-1.223-0.008-1.832,0.006
		c-0.188,0.005-0.229-0.057-0.229-0.233C33.1,16.45,33.094,15.71,33.094,14.968z"/>
	<path fill="#231F20" d="M15.957,15.971c0.291,0.485,0.64,0.723,1.142,0.692c0.342-0.019,0.597-0.238,0.661-0.57
		c0.054-0.282-0.088-0.536-0.403-0.677c-0.266-0.119-0.543-0.214-0.812-0.329c-0.743-0.317-1.011-0.763-0.894-1.473
		c0.104-0.628,0.676-1.098,1.388-1.139c0.521-0.03,0.987,0.113,1.409,0.421c0.115,0.083,0.135,0.15,0.03,0.248
		c-0.028,0.026-0.048,0.061-0.072,0.09c-0.099,0.129-0.173,0.316-0.303,0.369c-0.125,0.051-0.22-0.164-0.354-0.227
		c-0.315-0.149-0.626-0.167-0.92,0.037c-0.308,0.214-0.294,0.588,0.026,0.775c0.164,0.098,0.347,0.164,0.522,0.241
		c0.175,0.077,0.355,0.146,0.529,0.228c0.655,0.314,0.898,0.715,0.83,1.442c-0.068,0.729-0.522,1.248-1.195,1.39
		c-0.825,0.17-1.525-0.041-2.055-0.726c-0.081-0.104-0.093-0.168,0.011-0.27C15.658,16.341,15.792,16.161,15.957,15.971z"/>
	<path fill="#231F20" d="M30.328,15.822c0.391-0.977,0.764-1.904,1.133-2.831c0.18-0.45,0.18-0.45,0.658-0.45
		c0.172,0,0.34,0,0.514,0c0.035,0.076-0.016,0.132-0.039,0.189c-0.648,1.545-1.305,3.088-1.939,4.636
		c-0.088,0.219-0.233,0.166-0.383,0.182c-0.147,0.013-0.231-0.024-0.295-0.178c-0.623-1.528-1.256-3.054-1.887-4.583
		c-0.102-0.246-0.1-0.251,0.156-0.246c0.26,0.008,0.58-0.101,0.766,0.043c0.176,0.133,0.213,0.446,0.307,0.682
		C29.65,14.101,29.977,14.937,30.328,15.822z"/>
	<path fill="#231F20" d="M22.797,16.169c0,0.345-0.002,0.674,0.001,1.004c0,0.078-0.049,0.104-0.106,0.129
		c-1.485,0.677-3.353-0.147-3.606-1.889c-0.249-1.705,1.005-3.044,2.729-2.972c0.054,0.002,0.108,0.007,0.162,0.017
		c0.809,0.143,0.821,0.157,0.821,0.966c0,0.127,0,0.256,0,0.4c-0.911-0.673-1.72-0.669-2.331-0.008
		c-0.573,0.619-0.591,1.692-0.04,2.316C21.026,16.809,21.859,16.825,22.797,16.169z"/>
	<path fill="#242021" d="M14.073,14.966c0-0.74,0.005-1.482-0.004-2.224c-0.001-0.161,0.04-0.218,0.205-0.206
		c0.192,0.015,0.387,0.014,0.579,0c0.149-0.009,0.181,0.05,0.18,0.187c-0.004,1.507-0.004,3.013,0.001,4.52
		c0,0.146-0.045,0.188-0.185,0.182c-0.2-0.012-0.402-0.012-0.603,0.002c-0.151,0.009-0.176-0.053-0.176-0.188
		C14.076,16.482,14.073,15.725,14.073,14.966z"/>
	<path fill="#F9A022" d="M28.074,16.014c-0.375,1.063-1.746,1.817-2.795,1.536c0.43-0.284,0.866-0.561,1.342-0.764
		c0.393-0.166,0.719-0.451,1.096-0.647C27.826,16.079,27.928,15.979,28.074,16.014z"/>
	<path fill="#EC7424" d="M27.99,13.816c0.057,0.053,0.082,0.119,0.09,0.193c0.02,0.14-0.092,0.189-0.18,0.236
		c-0.4,0.215-0.771,0.479-1.168,0.705c-0.33,0.188-0.676,0.364-0.981,0.603c-0.299,0.232-0.637,0.399-0.968,0.581
		c-0.241,0.134-0.443,0.332-0.706,0.433c-0.085,0.033-0.164,0.09-0.26,0.094c-0.036,0.002-0.069-0.01-0.099-0.029
		c-0.017-0.018-0.025-0.039-0.027-0.064c0.006-0.157,0.086-0.27,0.226-0.348c0.939-0.527,1.825-1.148,2.794-1.623
		C27.164,14.375,27.582,14.105,27.99,13.816z"/>
	<path fill="#F89A22" d="M28.074,16.014c-0.453,0.215-0.842,0.545-1.293,0.754c-0.477,0.221-0.922,0.485-1.37,0.754
		c-0.035,0.022-0.088,0.02-0.133,0.028c-0.144-0.002-0.279-0.03-0.403-0.102c0.387-0.255,0.76-0.531,1.177-0.732
		c0.64-0.313,1.236-0.696,1.865-1.022c0.092-0.047,0.183-0.09,0.285-0.051C28.182,15.771,28.152,15.9,28.074,16.014z"/>
	<path fill="#EE7A23" d="M23.809,16.614c0.284-0.113,0.57-0.224,0.797-0.445c0.137-0.135,0.332-0.183,0.497-0.278
		c0.493-0.279,0.946-0.619,1.432-0.905c0.23-0.139,0.492-0.23,0.699-0.396c0.27-0.214,0.627-0.298,0.846-0.581
		c0.063,0.082,0.088,0.174,0.096,0.274c0.008,0.015,0.016,0.036,0.006,0.042c-0.293,0.182-0.559,0.408-0.867,0.563
		c-0.145,0.071-0.287,0.143-0.422,0.232c-0.51,0.344-1.053,0.631-1.591,0.927c-0.403,0.225-0.816,0.436-1.188,0.711
		c-0.063,0.049-0.122,0.125-0.222,0.092c-0.014-0.012-0.027-0.022-0.039-0.035C23.841,16.747,23.747,16.698,23.809,16.614z"/>
	<path fill="#F79421" d="M28.203,15.643c-0.434,0.159-0.813,0.422-1.217,0.64c-0.67,0.362-1.348,0.709-1.978,1.141
		c-0.035,0.021-0.089,0.019-0.134,0.025c-0.088-0.007-0.166-0.035-0.234-0.093c0.043-0.104,0.128-0.168,0.229-0.217
		c0.542-0.258,1.043-0.586,1.56-0.889c0.504-0.294,1.01-0.582,1.529-0.843c0.09-0.047,0.184-0.129,0.297-0.045
		C28.271,15.46,28.229,15.55,28.203,15.643z"/>
	<path fill="#EB7024" d="M27.99,13.816c-0.018,0.043-0.023,0.104-0.055,0.121c-0.334,0.188-0.629,0.434-0.978,0.604
		c-0.621,0.305-1.229,0.631-1.805,1.02c-0.362,0.244-0.749,0.457-1.134,0.664c-0.153,0.08-0.255,0.18-0.301,0.344
		c-0.083-0.032-0.094-0.098-0.086-0.178c0.02-0.147,0.105-0.238,0.238-0.313c0.748-0.431,1.465-0.909,2.209-1.347
		c0.562-0.328,1.114-0.664,1.657-1.016c0.05-0.03,0.099-0.047,0.15-0.057C27.953,13.69,27.98,13.748,27.99,13.816z"/>
	<path fill="#E96B24" d="M27.889,13.656c-0.428,0.324-0.879,0.619-1.354,0.869c-0.488,0.259-0.956,0.562-1.421,0.855
		c-0.42,0.265-0.856,0.506-1.276,0.771c-0.101,0.064-0.101,0.16-0.165,0.23c-0.059-0.01-0.095-0.049-0.115-0.102
		c0-0.012,0-0.021,0-0.035c0.003-0.008,0.006-0.02,0.008-0.029c0.008-0.023,0.017-0.041,0.026-0.063
		c0.035-0.113,0.093-0.201,0.201-0.268c0.802-0.506,1.65-0.928,2.439-1.457c0.285-0.193,0.606-0.332,0.891-0.535
		c0.215-0.152,0.479-0.223,0.682-0.396C27.881,13.523,27.822,13.623,27.889,13.656z"/>
	<path fill="#EF7F23" d="M23.892,16.852c0.508-0.373,1.071-0.652,1.617-0.965c0.511-0.289,1.015-0.604,1.519-0.909
		c0.384-0.229,0.744-0.498,1.148-0.693c0.055,0.052,0.045,0.118,0.045,0.184c0.012,0.021,0.014,0.043,0.004,0.065
		c-1.121,0.588-2.146,1.34-3.283,1.901c-0.246,0.121-0.452,0.295-0.679,0.438c-0.083,0.053-0.161,0.133-0.273,0.067
		C23.941,16.927,23.913,16.895,23.892,16.852z"/>
	<path fill="#F18222" d="M23.99,16.939c0.043-0.014,0.095-0.018,0.128-0.045c0.517-0.391,1.102-0.664,1.661-0.979
		c0.738-0.412,1.427-0.903,2.171-1.301c0.082-0.044,0.159-0.096,0.26-0.088c0.058,0.129-0.043,0.186-0.125,0.229
		c-0.771,0.408-1.463,0.943-2.237,1.347c-0.499,0.263-0.934,0.629-1.452,0.859c-0.089,0.039-0.171,0.111-0.281,0.078
		C24.057,17.027,24.021,16.984,23.99,16.939z"/>
	<path fill="#B93926" d="M23.577,16.241c0,0.018,0.001,0.032,0.002,0.049c0.032,0.06,0.053,0.112-0.039,0.142
		c-0.072-0.072-0.137-0.15-0.149-0.257c-0.017-0.073-0.044-0.146-0.073-0.214c-0.212-0.902-0.004-1.701,0.599-2.403
		c0.806-0.936,2.088-1.212,3.209-0.688c0.078,0.034,0.146,0.091,0.222,0.127c0.104,0.055,0.178,0.141,0.248,0.231
		c-0.113,0.083-0.188-0.02-0.275-0.055c-0.57-0.351-1.188-0.413-1.827-0.272c-0.944,0.209-1.563,0.813-1.897,1.697
		c-0.188,0.499-0.215,1.023-0.041,1.542C23.568,16.171,23.575,16.206,23.577,16.241z"/>
	<path fill="#D85027" d="M27.334,13.136c0.098-0.001,0.154,0.111,0.26,0.091c0.066,0.052,0.131,0.107,0.156,0.194
		c-0.023,0.103-0.076,0.023-0.117,0.021c-0.111-0.064-0.229-0.119-0.34-0.182c-0.191-0.104-0.406-0.127-0.613-0.179
		c-0.996-0.138-1.822,0.175-2.472,0.94c-0.099,0.117-0.212,0.226-0.258,0.379c-0.186,0.343-0.29,0.707-0.334,1.093
		c-0.016,0.14-0.029,0.274-0.002,0.413c0.022,0.113,0.023,0.228-0.033,0.333h-0.003c-0.016-0.015-0.03-0.029-0.046-0.046
		c-0.334-1.302,0.203-2.314,1.199-2.988c0.446-0.302,0.977-0.403,1.526-0.366C26.637,12.869,27.004,12.934,27.334,13.136z"/>
	<path fill="#F58D20" d="M24.369,17.216c-0.02-0.014-0.041-0.026-0.061-0.041c0.122-0.139,0.298-0.178,0.454-0.258
		c0.282-0.138,0.542-0.312,0.78-0.517c0.036-0.026,0.075-0.051,0.117-0.067c0.428-0.207,0.831-0.46,1.229-0.719
		c0.059-0.036,0.11-0.085,0.176-0.109c0.336-0.134,0.647-0.313,0.969-0.483c0.07-0.039,0.148-0.09,0.236-0.037
		c0.059,0.16-0.068,0.221-0.166,0.289c-0.354,0.248-0.738,0.445-1.119,0.645c-0.549,0.283-1.065,0.619-1.608,0.912
		c-0.257,0.14-0.521,0.265-0.789,0.385C24.516,17.247,24.443,17.266,24.369,17.216z"/>
	<path fill="#F28721" d="M25.666,16.382c-0.031,0.017-0.063,0.031-0.094,0.048c-0.369,0.202-0.735,0.409-1.096,0.629
		c-0.074,0.045-0.147,0.116-0.25,0.065c-0.05-0.01-0.083-0.045-0.11-0.084c0.818-0.379,1.544-0.918,2.332-1.353
		c0.518-0.284,0.983-0.652,1.512-0.921c0.101-0.052,0.242-0.083,0.252-0.239c0.002-0.02,0.006-0.039,0.011-0.06
		c0.061,0.106,0.047,0.224,0.045,0.339c-0.277,0.192-0.56,0.385-0.859,0.539C26.803,15.654,26.242,16.032,25.666,16.382z"/>
	<path fill="#9E3422" d="M26.637,12.582c0.193,0.051,0.363,0.145,0.518,0.272c-0.012,0.007-0.021,0.015-0.03,0.022
		c-0.383-0.137-0.765-0.27-1.185-0.253c-1.135,0.046-1.948,0.585-2.448,1.599c-0.251,0.509-0.262,1.047-0.171,1.598
		c0.006,0.035,0.003,0.074,0,0.115c-0.006,0.01-0.013,0.021-0.02,0.028c-0.091-0.147-0.13-0.312-0.141-0.484
		c-0.195-1.375,0.67-2.669,2.003-2.978C25.658,12.388,26.152,12.421,26.637,12.582z"/>
	<path fill="#E86525" d="M27.658,13.416c0.031,0.002,0.059,0.049,0.092,0.006c0.018,0.025,0.037,0.051,0.055,0.076
		c-0.01,0.139-0.129,0.16-0.221,0.208c-0.145,0.075-0.289,0.146-0.436,0.22c-0.828,0.422-1.616,0.912-2.427,1.364
		c-0.121,0.067-0.238,0.18-0.401,0.128c-0.03-0.124,0.066-0.178,0.145-0.232c0.375-0.256,0.745-0.521,1.153-0.721
		c0.608-0.299,1.171-0.676,1.765-1C27.469,13.416,27.553,13.349,27.658,13.416z"/>
	<path fill="#F69021" d="M24.369,17.216c0.339-0.062,0.626-0.25,0.921-0.405c0.619-0.324,1.203-0.713,1.833-1.018
		c0.357-0.172,0.68-0.394,1.008-0.605c0.068-0.045,0.154-0.087,0.125-0.196c-0.037-0.056-0.037-0.108,0.014-0.154
		c0.06,0.177,0.01,0.352-0.014,0.526c-0.385,0.098-0.723,0.307-1.063,0.5c-0.715,0.403-1.409,0.841-2.123,1.247
		c-0.142,0.082-0.291,0.156-0.43,0.246C24.538,17.337,24.449,17.286,24.369,17.216z"/>
	<path fill="#8F3420" d="M26.637,12.582c-0.289-0.027-0.572-0.111-0.869-0.098c-0.979,0.046-1.72,0.465-2.229,1.318
		c-0.316,0.527-0.406,1.083-0.38,1.678c-0.148-0.775,0.025-1.471,0.503-2.097C24.34,12.493,25.65,12.138,26.637,12.582z"/>
	<path fill="#F48921" d="M28.27,14.836c-0.004,0.052-0.01,0.103-0.014,0.154c-0.475,0.249-0.969,0.458-1.428,0.74
		c-0.377,0.232-0.74,0.5-1.163,0.65c0.31-0.316,0.722-0.48,1.081-0.72c0.383-0.256,0.813-0.432,1.186-0.709
		c0.096-0.07,0.209-0.133,0.334-0.146C28.277,14.815,28.279,14.826,28.27,14.836z"/>
	<path fill="#F48921" d="M24.226,17.124c0.299-0.103,0.527-0.324,0.806-0.463c0.177-0.088,0.345-0.19,0.541-0.231
		c-0.352,0.364-0.804,0.563-1.264,0.745C24.281,17.159,24.254,17.143,24.226,17.124z"/>
	<path fill="#4A4747" d="M39.799,13.109c-0.219-0.204-0.221-0.391,0-0.596c0.023,0.012,0.033,0.031,0.035,0.055
		c-0.043,0.162-0.049,0.324,0.004,0.486C39.834,13.078,39.82,13.095,39.799,13.109z"/>
	<path fill="#CB4527" d="M23.54,16.432c0.045-0.039,0.036-0.093,0.039-0.142c0.031,0.03,0.063,0.062,0.094,0.092
		c-0.01,0.068,0.012,0.129,0.047,0.187c-0.001,0.016-0.002,0.029-0.001,0.045c-0.014,0.021-0.028,0.021-0.044,0.002
		C23.615,16.563,23.558,16.509,23.54,16.432z"/>
	<path fill="#3C393A" d="M40.309,12.736c-0.035-0.148-0.211-0.166-0.266-0.295c0.154,0.012,0.256,0.091,0.309,0.235
		C40.344,12.701,40.342,12.728,40.309,12.736z"/>
	<path fill="#3D3A3A" d="M40.045,13.179c-0.021-0.107,0.127-0.06,0.133-0.143c0.084-0.014,0.082-0.105,0.133-0.148
		c0.031,0.008,0.033,0.035,0.041,0.059C40.299,13.089,40.199,13.169,40.045,13.179z"/>
	<path fill="#DA6628" d="M23.674,16.614c0.015,0,0.029-0.003,0.044-0.003c0.03,0.003,0.061,0.003,0.091,0.003
		c0.015,0.065,0.028,0.133,0.043,0.2C23.776,16.766,23.706,16.706,23.674,16.614z"/>
	<path fill="#9E3422" d="M27.346,12.996c-0.078-0.002-0.146-0.029-0.197-0.091c-0.016-0.009-0.02-0.017-0.018-0.026
		c0.006-0.011,0.01-0.016,0.014-0.016l0.01-0.009C27.234,12.876,27.291,12.935,27.346,12.996z"/>
	<path fill="#282525" d="M40.352,12.947c-0.014-0.02-0.026-0.038-0.041-0.059c-0.002-0.051-0.002-0.103-0.002-0.152
		c0.017-0.021,0.029-0.041,0.043-0.06C40.383,12.766,40.383,12.857,40.352,12.947z"/>
	<path fill="#373535" d="M39.854,13.041c-0.006,0.072,0.146,0.04,0.095,0.141c-0.058-0.009-0.107-0.03-0.148-0.072
		c0.007-0.021,0.009-0.043,0.011-0.063c0.006-0.007,0.014-0.013,0.021-0.018C39.838,13.032,39.846,13.037,39.854,13.041z"/>
	<path fill="#373535" d="M39.809,12.576c-0.002-0.021-0.004-0.041-0.01-0.063c0.053-0.023,0.094-0.115,0.164-0.027
		c-0.014,0.06-0.105,0.027-0.111,0.097c-0.006,0.005-0.014,0.009-0.022,0.013C39.822,12.589,39.814,12.583,39.809,12.576z"/>
	<path fill="#9E3422" d="M23.345,15.964c0.039,0.065,0.053,0.134,0.045,0.21c-0.054-0.061-0.086-0.129-0.091-0.21l0.007-0.006
		C23.322,15.945,23.334,15.947,23.345,15.964z"/>
	<path fill="#231F20" d="M11.748,12.626c-0.632-0.146-1.277-0.064-1.916-0.09c-0.162-0.006-0.209,0.043-0.208,0.206
		c0.009,0.749,0.004,1.499,0.004,2.248s0.003,1.496-0.002,2.246c-0.001,0.138,0.031,0.191,0.178,0.188
		c0.517-0.012,1.036,0.002,1.553-0.021c1.236-0.057,2.211-1.024,2.279-2.305C13.7,13.882,12.978,12.91,11.748,12.626z
		 M12.565,15.537c-0.211,0.643-0.677,0.984-1.358,1.041c-0.621,0.051-0.62,0.059-0.62-0.566c0-0.347,0-0.696,0-1.042
		c0-0.472,0.007-0.943-0.004-1.414c-0.003-0.158,0.05-0.191,0.195-0.188c0.492,0.014,0.979,0.041,1.36,0.409
		C12.649,14.27,12.784,14.873,12.565,15.537z"/>
	<path fill="#231F20" d="M39.213,16.402c-0.248-0.334-0.498-0.666-0.76-1.021c0.047-0.019,0.076-0.029,0.105-0.039
		c0.717-0.242,1.012-0.68,0.981-1.453c-0.028-0.674-0.396-1.107-1.099-1.271c-0.633-0.146-1.276-0.054-1.916-0.078
		c-0.147-0.006-0.104,0.104-0.104,0.178c-0.002,1.508,0,3.016-0.006,4.521c0,0.162,0.053,0.193,0.197,0.186
		c0.184-0.012,0.369-0.012,0.555,0c0.148,0.01,0.199-0.031,0.197-0.188c-0.01-0.518-0.006-1.035-0.004-1.555
		c0.002-0.069-0.045-0.175,0.043-0.209c0.109-0.043,0.137,0.074,0.18,0.14c0.371,0.55,0.74,1.101,1.111,1.651
		c0.045,0.066,0.074,0.158,0.18,0.158c0.352-0.002,0.703-0.002,1.094-0.002C39.699,17.059,39.455,16.73,39.213,16.402z
		 M37.922,14.766c-0.559,0.092-0.559,0.092-0.559-0.461c0-0.085,0-0.169,0-0.255c0-0.192,0.008-0.387-0.004-0.578
		c-0.006-0.125,0.039-0.165,0.158-0.154c0.146,0.013,0.297-0.004,0.438,0.024c0.432,0.083,0.619,0.319,0.611,0.734
		C38.555,14.463,38.338,14.696,37.922,14.766z"/>
	<path fill="#E35B26" d="M23.58,16.241c0.024-0.25-0.075-0.488-0.031-0.748c0.065-0.39,0.136-0.768,0.354-1.105
		c0.047-0.072,0.107-0.125,0.187-0.166c0.672-0.35,1.349-0.688,2.023-1.031c0.185-0.094,0.345-0.24,0.572-0.147
		c0.229,0.021,0.451,0.056,0.648,0.185c-0.336,0.276-0.746,0.426-1.107,0.658c-0.705,0.455-1.448,0.845-2.18,1.254
		c-0.266,0.149-0.421,0.324-0.359,0.641c0.002,0.143-0.038,0.276-0.063,0.416C23.61,16.212,23.595,16.229,23.58,16.241z"/>
	<path fill="#E96625" d="M23.625,16.195c0-0.153,0-0.307,0-0.463c0.197-0.183,0.408-0.336,0.696-0.324
		c0.514-0.209,0.974-0.518,1.457-0.788c0.449-0.252,0.877-0.538,1.373-0.694c-0.123,0.143-0.291,0.235-0.451,0.309
		c-0.516,0.236-0.94,0.619-1.443,0.87c-0.462,0.229-0.887,0.522-1.334,0.776C23.781,15.96,23.665,16.036,23.625,16.195z"/>
	<path fill="#CB4527" d="M27.334,13.136c-0.416-0.176-0.852-0.229-1.303-0.24c-1.022-0.025-2.02,0.795-2.371,1.668
		c-0.219,0.54-0.196,1.081-0.13,1.631c-0.191-0.315-0.168-0.672-0.13-1.008c0.114-1.01,0.653-1.75,1.564-2.179
		c0.705-0.332,1.443-0.317,2.168-0.017C27.209,13.023,27.295,13.048,27.334,13.136z"/>
	<path fill="#A83523" d="M23.345,15.964c-0.013,0-0.026-0.002-0.04-0.006c-0.062-0.498-0.123-0.994,0.037-1.486
		c0.313-0.971,1.005-1.549,1.959-1.82c0.633-0.18,1.251-0.057,1.844,0.211c0.002,0.014,0.004,0.027,0.004,0.042
		c-0.258-0.036-0.488-0.169-0.754-0.204c-0.828-0.107-1.543,0.09-2.177,0.645c-0.413,0.361-0.693,0.798-0.839,1.315
		c-0.096,0.341-0.114,0.699-0.06,1.054C23.333,15.798,23.345,15.88,23.345,15.964z"/>
	<path fill="#E66025" d="M24.32,15.408c-0.249,0.075-0.462,0.221-0.696,0.324c-0.063-0.319,0.11-0.482,0.369-0.629
		c1.056-0.594,2.103-1.202,3.151-1.81c0.063-0.035,0.114-0.071,0.188-0.065c0.106,0.064,0.233,0.094,0.324,0.188
		c-0.175,0-0.304,0.113-0.433,0.198c-0.873,0.571-1.848,0.972-2.692,1.591C24.451,15.265,24.37,15.318,24.32,15.408z"/>
	<path fill="#E05826" d="M26.686,13.043c-0.203-0.054-0.334,0.092-0.492,0.175c-0.428,0.222-0.864,0.432-1.295,0.65
		c-0.333,0.17-0.664,0.346-0.995,0.52c0.126-0.336,0.381-0.575,0.642-0.794c0.596-0.497,1.298-0.663,2.063-0.593
		C26.635,13.003,26.658,13.029,26.686,13.043z"/>
	<path fill="#3A3737" d="M40.129,12.996c-0.105-0.057-0.197-0.049-0.275,0.045l0.006,0.006c-0.09-0.156-0.09-0.313,0-0.471
		l-0.008,0.007c0.168,0.024,0.396-0.008,0.246,0.288C40.082,12.9,40.117,12.954,40.129,12.996z"/>
</g>
<g>
	<g>
		<defs>
			<path id="SVGID_1_" d="M50,28c0,1.104-0.896,2-2,2H2c-1.104,0-2-0.896-2-2V2c0-1.104,0.896-2,2-2h46c1.104,0,2,0.896,2,2V28z"/>
		</defs>
		<clipPath id="SVGID_2_">
			<use xlink:href="#SVGID_1_"  overflow="visible"/>
		</clipPath>
		<path clip-path="url(#SVGID_2_)" fill="#F58220" d="M24.642,29.996c0.337-0.135,0.698-0.156,1.047-0.225
			c5.063-0.965,10.002-2.347,14.793-4.254c3.156-1.259,6.222-2.699,9.104-4.513c0.155-0.098,0.292-0.228,0.471-0.284
			c0,3.028-0.002,6.059,0.006,9.09c0,0.157-0.033,0.188-0.19,0.188C41.461,29.994,33.052,29.996,24.642,29.996z"/>
	</g>
</g>
</svg>
