<?xml version="1.0" encoding="utf-8"?>
<!-- Generator: Adobe Illustrator 16.0.0, SVG Export Plug-In . SVG Version: 6.00 Build 0)  -->
<!DOCTYPE svg PUBLIC "-//W3C//DTD SVG 1.1//EN" "http://www.w3.org/Graphics/SVG/1.1/DTD/svg11.dtd">
<svg version="1.1" id="Layer_1" xmlns="http://www.w3.org/2000/svg" xmlns:xlink="http://www.w3.org/1999/xlink" x="0px" y="0px"
	 width="200px" height="30px" viewBox="-10 0 200 30" enable-background="new -10 0 200 30" xml:space="preserve">
<g>
	<g>
		<path fill="#DF2141" d="M34.377,9.876c-2.886,0-5.205,2.246-5.205,5.078c0,2.812,2.32,5.096,5.205,5.096
			c1.406,0,2.776-0.584,3.78-1.534l0.895,0.968c-1.26,1.188-2.977,1.934-4.75,1.934c-3.689,0-6.612-2.848-6.612-6.463
			c0-3.581,2.959-6.412,6.667-6.412c1.752,0,3.453,0.712,4.677,1.863l-0.877,1.06C37.171,10.479,35.783,9.876,34.377,9.876z"/>
		<path fill="#DF2141" d="M46.563,8.578v5.79h7.708v-5.79h1.461v12.785H54.27v-5.661h-7.708v5.661H45.1V8.578H46.563z"/>
		<path fill="#DF2141" d="M71.094,18.096h-6.959l-1.424,3.27h-1.553l5.736-12.786h1.516l5.717,12.786h-1.59L71.094,18.096z
			 M70.509,16.743l-2.903-6.575l-2.869,6.575H70.509z"/>
		<path fill="#DF2141" d="M87.918,21.365l-2.685-4.089c-0.256,0.015-0.53,0.033-0.823,0.033h-3.398v4.056h-1.462V8.578h4.858
			c3.197,0,5.042,1.571,5.042,4.292c0,2.101-1.042,3.545-2.887,4.129l3.014,4.364h-1.66V21.365z M84.411,15.957
			c2.32,0,3.635-1.041,3.635-3.049c0-1.955-1.314-2.978-3.635-2.978h-3.398v6.026H84.411z"/>
		<path fill="#DF2141" d="M97.984,8.578l4.677,9.278l4.657-9.278h1.789v12.785h-1.35l-0.021-10.63l-4.657,9.278h-0.878l-4.637-9.278
			v10.63h-1.389V8.578H97.984z"/>
		<path fill="#DF2141" d="M120.125,9.95c-1.646,0-2.723,0.657-2.723,1.753c0,3.324,7.195,1.589,7.179,6.228
			c0,2.119-1.882,3.487-4.622,3.487c-1.862,0-3.69-0.802-4.895-1.952l0.657-1.262c1.188,1.133,2.814,1.792,4.257,1.792
			c1.845,0,2.995-0.749,2.995-1.99c0.018-3.417-7.178-1.607-7.178-6.194c0-2.009,1.771-3.286,4.421-3.286
			c1.478,0,2.995,0.474,4.054,1.187l-0.622,1.298C122.499,10.259,121.146,9.95,120.125,9.95z"/>
		<path d="M132.456,8.578v11.434h5.606v1.352h-7.068V8.578H132.456z"/>
		<path d="M152.073,18.096h-6.959l-1.424,3.27h-1.554l5.736-12.786h1.514l5.718,12.786h-1.589L152.073,18.096z M151.489,16.743
			l-2.905-6.575l-2.865,6.575H151.489z"/>
		<path d="M162.05,8.578l7.67,10.392V8.578h1.442v12.785h-1.499l-7.668-10.374v10.374h-1.464V8.578H162.05z"/>
		<path d="M187.147,8.578V9.93h-7.215v4.293h6.448v1.333h-6.448v4.456h7.452v1.352h-8.913V8.578H187.147z"/>
	</g>
	<g>
		<path d="M-2.207,14.917c0-4.634,3.343-8.486,7.748-9.282V4.448C0.383,5.149-3.593,9.567-3.593,14.917
			c0,5.35,3.976,9.771,9.134,10.469v-1.187C1.136,23.405-2.207,19.553-2.207,14.917z"/>
		<path fill="#DF2141" d="M6.675,25.52V4.425h0.997v19.961c1.561-0.308,6.075-1.574,8.464-6.182l0.885,0.459
			c-3.162,6.094-9.53,6.777-9.799,6.803L6.675,25.52z"/>
	</g>
	<path d="M6.715,1C-1.002,1-7.257,7.256-7.257,14.972s6.254,13.971,13.972,13.971c7.715,0,13.971-6.255,13.971-13.971
		C20.685,7.256,14.43,1,6.715,1z M6.713,27.6c-6.975,0-12.627-5.654-12.627-12.628c0-6.975,5.652-12.627,12.627-12.627
		c6.974,0,12.627,5.653,12.627,12.627C19.34,21.945,13.687,27.6,6.713,27.6z"/>
</g>
</svg>
