<?xml version="1.0" encoding="utf-8"?>
<!-- Generator: Adobe Illustrator 16.0.0, SVG Export Plug-In . SVG Version: 6.00 Build 0)  -->
<!DOCTYPE svg PUBLIC "-//W3C//DTD SVG 1.1//EN" "http://www.w3.org/Graphics/SVG/1.1/DTD/svg11.dtd">
<svg version="1.1" id="Layer_1" xmlns="http://www.w3.org/2000/svg" xmlns:xlink="http://www.w3.org/1999/xlink" x="0px" y="0px"
	 width="50px" height="30px" viewBox="0 0 50 30" enable-background="new 0 0 50 30" xml:space="preserve">
<path fill="#292670" d="M50,28c0,1.104-0.896,2-2,2H2c-1.104,0-2-0.896-2-2V2c0-1.104,0.896-2,2-2h46c1.104,0,2,0.896,2,2V28z"/>
<g>
	<path fill-rule="evenodd" clip-rule="evenodd" fill="#F8991D" d="M25.019,8.887c0.105-0.012,0.162-0.096,0.233-0.157
		c4.628-3.895,11.868-1.778,13.415,4.281c1.156,4.524-1.567,9.051-6.073,10.113c-2.815,0.663-5.337-0.008-7.533-1.891
		c-0.025-0.095,0.043-0.146,0.1-0.195c0.151-0.133,0.279-0.286,0.404-0.443c0.042-0.052,0.129-0.097,0.098-0.168
		c-0.038-0.086-0.138-0.05-0.212-0.051c-0.313-0.004-0.626,0-0.938-0.003c-0.357-0.002-0.835-0.428-0.888-0.782
		c-0.017-0.111,0.035-0.162,0.132-0.186c0.094-0.022,0.19-0.02,0.286-0.02c0.713-0.001,1.426,0.003,2.138-0.001
		c0.268-0.002,0.624-0.358,0.634-0.619c0.003-0.086-0.046-0.103-0.111-0.109c-0.069-0.008-0.139-0.005-0.209-0.005
		c-1,0-1.999,0.002-2.999,0c-0.401-0.001-0.447-0.034-0.599-0.407c-0.238-0.583-0.205-0.636,0.425-0.632
		c1.182,0.005,2.364-0.004,3.547-0.001c0.422,0.001,0.422-0.001,0.557-0.412c0.024-0.074,0.047-0.149,0.092-0.215
		c0.135-0.102,0.209,0.021,0.279,0.092c0.478,0.479,1.062,0.425,1.651,0.337c0.087-0.013,0.163-0.059,0.208-0.141
		c0.082-0.096,0.19-0.144,0.308-0.177c0.067,0.005,0.111,0.05,0.146,0.098c0.299,0.407,0.866,0.394,1.26,0.119
		c0.042-0.03,0.083-0.063,0.125-0.093c0.035-0.021,0.071-0.03,0.111-0.021c0.096,0.17,0.198,0.296,0.436,0.271
		c0.174-0.018,0.297-0.056,0.366-0.219c0.077-0.049,0.16-0.052,0.246-0.036c0.027,0.007,0.052,0.02,0.073,0.035
		c0.052,0.176,0.173,0.228,0.348,0.215c0.221-0.018,0.473,0.063,0.591-0.222c0.132-0.062,0.182-0.168,0.202-0.31
		c0.07-0.489,0.132-0.98,0.253-1.46c0.04-0.158,0.07-0.326,0.224-0.427c0.112-0.037,0.206-0.026,0.255,0.099
		c0.022,0.263-0.086,0.507-0.103,0.767c-0.021,0.327,0.011,0.641,0.138,0.939c0.268,0.632,0.851,0.822,1.446,0.484
		c0.038-0.021,0.073-0.046,0.113-0.063c0.05-0.015,0.101-0.03,0.143,0.015c0.258,0.273,0.669,0.252,0.884-0.046
		c0.148-0.057,0.199-0.176,0.222-0.322c0.183-1.191,0.375-2.379,0.571-3.567c0.027-0.167-0.005-0.256-0.189-0.236
		c-0.216,0.023-0.458-0.077-0.632,0.138c-0.171,0.068-0.23,0.204-0.253,0.377c-0.016,0.122-0.004,0.261-0.117,0.354
		c-0.063,0.033-0.117,0.003-0.171-0.023c-0.494-0.25-0.916-0.104-1.304,0.234c-0.124,0.107-0.218,0.245-0.347,0.347
		c-0.048,0.024-0.096,0.046-0.147,0.011c-0.08-0.193,0.053-0.346,0.097-0.516c0.014-0.056,0.068-0.119,0.015-0.167
		c-0.058-0.053-0.132-0.013-0.194,0.013c-0.105,0.044-0.176,0.137-0.265,0.205c-0.16,0.123-0.242,0.104-0.261-0.083
		c-0.015-0.148-0.085-0.166-0.2-0.166c-0.238,0-0.491-0.046-0.635,0.224c-0.148,0.06-0.177,0.189-0.199,0.328
		c-0.019,0.112-0.012,0.246-0.167,0.28c-0.06-0.041-0.078-0.107-0.104-0.168c-0.137-0.477-0.495-0.656-0.948-0.704
		c-0.357-0.037-0.704,0.021-1.045,0.124c-0.106,0.032-0.178,0.101-0.24,0.186c-0.076,0.067-0.165,0.117-0.204,0.226
		c-0.147,0.416-0.077,0.509,0.345,0.438c0.232-0.039,0.467-0.033,0.699-0.015c0.155,0.013,0.283,0.079,0.306,0.259
		c-0.045,0.065-0.116,0.068-0.185,0.074c-0.484,0.041-0.932,0.17-1.276,0.542c-0.212,0.13-0.318,0.337-0.401,0.56
		c-0.018,0.037-0.041,0.071-0.069,0.102c-0.616,0.356-1.451,0.183-1.501-0.719c-0.021-0.392,0.011-0.762,0.188-1.113
		c0.063-0.124,0.14-0.242,0.268-0.313c0.312-0.161,0.637-0.156,0.956-0.04c0.18,0.066,0.295,0.039,0.374-0.135
		c0.179-0.106,0.327-0.617,0.227-0.78c-0.046-0.072-0.122-0.093-0.196-0.117c-0.802-0.261-1.483-0.058-2.066,0.531
		c-0.091,0.093-0.173,0.194-0.267,0.285c-0.046,0.035-0.095,0.06-0.152,0.068c-0.048,0.001-0.089-0.01-0.117-0.053
		c-0.032-0.056-0.037-0.118-0.044-0.18c-0.016-0.218-0.096-0.351-0.351-0.348c-1.573,0.013-3.146-0.014-4.719,0.017
		c-0.297-0.052-0.606,0.043-0.896-0.076c-0.024-0.155,0.111-0.147,0.18-0.137c0.498,0.08,0.788-0.099,0.856-0.619
		c0.018-0.138,0.151-0.204,0.293-0.218c0.104-0.011,0.208-0.008,0.313-0.008c1.225,0,2.45,0.001,3.675-0.001
		c0.277,0,0.291-0.024,0.195-0.282c-0.166-0.445-0.175-0.452-0.66-0.452c-0.99,0-1.981,0.001-2.972,0
		c-0.441-0.001-0.462-0.06-0.273-0.464c0.18-0.384,0.432-0.557,0.875-0.532c0.65,0.037,1.303,0.011,1.955,0.008
		c0.083,0,0.194,0.035,0.242-0.047c0.058-0.099-0.051-0.171-0.096-0.25c-0.052-0.09-0.126-0.167-0.185-0.252
		c-0.118-0.175-0.276-0.245-0.487-0.239c-0.338,0.009-0.678,0.007-1.016-0.001c-0.086-0.002-0.191,0.004-0.235-0.08
		c-0.047-0.09,0.038-0.161,0.089-0.228C24.558,9.28,24.749,9.042,25.019,8.887z"/>
	<path fill-rule="evenodd" clip-rule="evenodd" fill="#CC2227" d="M25.019,8.887c-0.156,0.271-0.434,0.435-0.606,0.692
		c-0.032,0.049-0.075,0.09-0.149,0.179c0.476,0,0.905,0.01,1.333-0.004c0.203-0.006,0.345,0.044,0.452,0.226
		c0.102,0.171,0.236,0.322,0.347,0.487c0.034,0.052,0.117,0.104,0.071,0.178c-0.042,0.068-0.127,0.041-0.193,0.041
		c-0.791,0.001-1.582,0.009-2.372-0.004c-0.228-0.004-0.375,0.049-0.472,0.268c-0.083,0.187-0.215,0.352-0.279,0.579
		c0.184,0,0.347,0,0.51,0c1.034,0,2.068,0.004,3.102-0.004c0.177-0.001,0.262,0.062,0.331,0.218
		c0.302,0.685,0.306,0.683-0.437,0.683c-1.19,0-2.38,0.006-3.57-0.005c-0.239-0.002-0.355,0.058-0.417,0.305
		c-0.134,0.536-0.149,0.531-0.71,0.533c-0.112,0-0.224,0.012-0.335,0.019c-0.002,0.083,0.006,0.168-0.048,0.241
		c-0.157,0.069-0.228,0.193-0.25,0.361c-0.015,0.116-0.004,0.25-0.13,0.324c-0.047,0.006-0.076-0.02-0.096-0.058
		c-0.003-0.256-0.164-0.329-0.387-0.345c-0.581-0.042-1.126,0.02-1.549,0.483c-0.082,0.05-0.146,0.119-0.21,0.19
		c-0.047,0.053-0.092,0.139-0.188,0.071c-0.217-0.649-0.638-0.815-1.542-0.727c-0.254,0.024-0.546,0.029-0.715,0.293
		c-0.255,0.13-0.243,0.38-0.262,0.609c-0.011,0.138,0.105,0.113,0.188,0.094c0.273-0.064,0.549-0.08,0.827-0.059
		c0.175,0.013,0.35,0.044,0.394,0.262c-0.043,0.067-0.115,0.071-0.183,0.076c-0.496,0.033-0.945,0.175-1.292,0.554
		c-0.087,0.055-0.152,0.133-0.222,0.206c-0.045,0.047-0.104,0.139-0.175,0.018c0.002-0.367,0.095-0.722,0.148-1.082
		c0.068-0.455,0.15-0.908,0.224-1.362c0.048-0.295,0.037-0.306-0.271-0.308c-0.234-0.001-0.469,0.004-0.704-0.001
		c-0.147-0.003-0.274,0.03-0.371,0.147c-0.152,0.058-0.214,0.186-0.262,0.329c-0.125,0.375-0.243,0.754-0.381,1.125
		c-0.031,0.082-0.022,0.277-0.219,0.166c-0.08-0.431-0.026-0.866-0.036-1.298c-0.01-0.461-0.002-0.462-0.458-0.462
		c-0.165,0-0.33,0-0.495,0c-0.12,0-0.222,0.033-0.297,0.131c-0.169,0.056-0.226,0.186-0.254,0.352
		c-0.203,1.186-0.411,2.372-0.612,3.558c-0.043,0.253-0.008,0.29,0.249,0.294c0.195,0.003,0.409,0.044,0.514-0.194
		c0.167-0.078,0.224-0.221,0.249-0.393c0.043-0.298,0.091-0.596,0.152-0.891c0.018-0.086-0.002-0.22,0.153-0.219
		c0.076,0.097,0.061,0.213,0.062,0.324c0,0.354-0.008,0.71,0.05,1.062c0.018,0.104-0.032,0.248,0.114,0.288
		c0.15,0.041,0.31,0.054,0.43-0.088c0.022-0.026,0.044-0.054,0.069-0.078c0.142-0.081,0.225-0.206,0.275-0.359
		c0.109-0.336,0.236-0.666,0.354-0.998c0.036-0.102,0.046-0.225,0.174-0.269c0.124,0.078,0.084,0.196,0.067,0.303
		c-0.069,0.417-0.124,0.835-0.2,1.251c-0.036,0.197,0.032,0.272,0.227,0.263c0.228-0.01,0.475,0.054,0.625-0.196
		c0.228-0.07,0.194-0.303,0.284-0.459c0.105-0.034,0.114,0.057,0.134,0.113c0.233,0.632,0.78,0.721,1.313,0.45
		c0.084-0.043,0.16-0.104,0.254-0.126c0.026-0.001,0.057-0.001,0.075,0.017c0.304,0.292,0.563,0.29,0.84-0.008
		c0.04-0.016,0.079-0.014,0.117,0.004c0.072,0.075,0.14,0.159,0.251,0.174c0.482,0.065,0.965,0.108,1.439-0.05
		c0.083-0.027,0.162-0.063,0.219-0.134c0.173-0.13,0.312-0.317,0.553-0.336c0.263,0.577,0.557,0.717,1.123,0.545
		c0.116-0.036,0.2-0.097,0.257-0.199c0.14-0.066,0.219-0.17,0.231-0.33c0.006-0.081,0.026-0.166,0.087-0.231
		c0.091-0.021,0.123,0.051,0.156,0.107c0.395,0.673,1.022,0.774,1.717,0.686c0.2-0.025,0.424-0.03,0.556-0.233
		c0.096-0.064,0.174-0.179,0.317-0.123c0.083,0.102-0.015,0.34,0.215,0.323c0.255-0.018,0.566,0.139,0.738-0.197
		c0.132-0.074,0.189-0.187,0.207-0.337c0.054-0.447,0.124-0.894,0.224-1.333c0.042-0.185,0.077-0.375,0.212-0.523
		c0.118-0.041,0.201-0.118,0.242-0.238c0.075-0.067,0.154-0.072,0.236-0.015c0.063,0.145,0.014,0.29-0.008,0.431
		c-0.077,0.506-0.029,0.995,0.184,1.463c0.035,0.077,0.08,0.155,0.039,0.245c-0.198,0.747-0.198,0.747-0.954,0.747
		c-1.191,0-2.382,0.004-3.573-0.004c-0.228-0.002-0.27,0.055-0.186,0.268c0.24,0.607,0.233,0.61,0.895,0.61c1,0,2,0.003,3-0.003
		c0.193-0.001,0.247,0.029,0.149,0.227c-0.328,0.67-0.322,0.673-1.063,0.673c-0.661,0-1.321-0.001-1.982,0.001
		c-0.064,0.001-0.152-0.037-0.19,0.037c-0.035,0.069,0.035,0.127,0.071,0.184c0.39,0.62,0.39,0.62,1.131,0.62
		c0.278,0,0.557,0,0.834,0.001c0.052,0,0.115-0.008,0.14,0.046c0.026,0.058-0.032,0.093-0.066,0.128
		c-0.238,0.251-0.479,0.501-0.718,0.751c-0.882,0.75-1.852,1.352-2.958,1.711c-5.023,1.634-10.345-1.644-10.881-7.042
		c-0.442-4.458,2.553-8.353,6.981-9.037C20.767,6.469,23.057,7.166,25.019,8.887z"/>
	<path fill-rule="evenodd" clip-rule="evenodd" fill="#FFEDD9" d="M38.274,19.517c0.016,0,0.027,0.008,0.035,0.021
		c-0.013,0.065,0.044,0.127,0.014,0.195c-0.023,0.058-0.051,0.113-0.119,0.131c-0.055,0.005-0.101-0.011-0.13-0.061
		c-0.033-0.088-0.002-0.174,0.006-0.261c0.018-0.037,0.048-0.058,0.088-0.063C38.206,19.484,38.241,19.497,38.274,19.517z"/>
	<path fill-rule="evenodd" clip-rule="evenodd" fill="#FAA63F" d="M38.274,19.517c-0.039-0.002-0.077-0.004-0.116-0.006
		c-0.069-0.044-0.118,0.062-0.187,0.025c-0.009-0.007-0.018-0.014-0.026-0.021C38.056,19.347,38.165,19.383,38.274,19.517z"/>
	<path fill-rule="evenodd" clip-rule="evenodd" fill="#FBB35E" d="M37.843,19.775c-0.021-0.108-0.056-0.222,0.103-0.26l-0.002-0.003
		c0.067,0.095,0.019,0.176-0.03,0.258C37.892,19.792,37.868,19.794,37.843,19.775z"/>
	<path fill-rule="evenodd" clip-rule="evenodd" fill="#FCB460" d="M38.206,19.828c0.033-0.036,0.065-0.073,0.099-0.11
		c0.022,0.012,0.038,0.03,0.047,0.055c-0.016,0.083-0.064,0.137-0.148,0.156c-0.017-0.013-0.026-0.029-0.028-0.051
		C38.179,19.857,38.188,19.841,38.206,19.828z"/>
	<path fill-rule="evenodd" clip-rule="evenodd" fill="#FAA844" d="M38.201,19.868c0.001,0.021,0.002,0.04,0.002,0.061
		c-0.068,0.043-0.138,0.044-0.207,0.001c-0.02-0.025-0.018-0.049,0.008-0.068C38.071,19.827,38.136,19.854,38.201,19.868z"/>
	<path fill-rule="evenodd" clip-rule="evenodd" fill="#FBB35F" d="M37.998,19.87c-0.001,0.02-0.001,0.04-0.002,0.06
		c-0.085-0.018-0.131-0.074-0.153-0.154c0.021-0.002,0.042-0.003,0.063-0.005c0.038-0.007,0.067,0.008,0.093,0.035
		C38.01,19.827,38.011,19.849,37.998,19.87z"/>
	<path fill-rule="evenodd" clip-rule="evenodd" fill="#FAA841" d="M38.352,19.772c-0.016-0.019-0.031-0.036-0.047-0.055
		c0.007-0.06-0.059-0.122,0.005-0.18C38.384,19.605,38.376,19.688,38.352,19.772z"/>
	<path fill-rule="evenodd" clip-rule="evenodd" fill="#FFFFFF" d="M34.999,14.505c0.458-0.645,1.132-0.979,1.807-0.528
		c0.116,0.033,0.176,0.017,0.195-0.13c0.027-0.201,0.02-0.415,0.146-0.593c0.018-0.178,0.104-0.253,0.291-0.231
		c0.154,0.018,0.313,0.017,0.468,0c0.203-0.022,0.223,0.064,0.194,0.237c-0.209,1.265-0.415,2.53-0.608,3.798
		c-0.027,0.18-0.103,0.231-0.261,0.226c-0.18,0.098-0.371,0.066-0.561,0.047c-0.108,0.007-0.097-0.151-0.203-0.149
		c-0.093,0.06-0.203,0.073-0.297,0.127c-0.605,0.263-1.158-0.051-1.387-0.575c-0.26-0.593-0.218-1.194-0.027-1.796
		C34.821,14.783,34.855,14.613,34.999,14.505z"/>
	<path fill-rule="evenodd" clip-rule="evenodd" fill="#FFFFFF" d="M30.672,14.088c0.023-0.105,0.06-0.182,0.186-0.219
		c0.449-0.131,0.898-0.195,1.363-0.101c0.414,0.085,0.696,0.303,0.774,0.738c0.041,0.195,0.077,0.392,0.063,0.593
		c0.005,0.134-0.034,0.263-0.05,0.395c-0.034,0.182-0.078,0.362-0.104,0.546c-0.011,0.291-0.047,0.578-0.123,0.86
		c-0.064,0.111-0.001,0.267-0.121,0.359c-0.075,0.007-0.15,0.013-0.226,0.02c-0.215,0.074-0.422,0.119-0.61-0.074
		c-0.077-0.08-0.174,0.002-0.263,0.008c-0.015,0.013-0.029,0.025-0.043,0.037c-0.641,0.326-1.176,0.111-1.411-0.566
		c-0.02-0.208-0.015-0.416-0.005-0.624c0.031-0.172,0.102-0.325,0.229-0.449c0.387-0.473,0.924-0.57,1.49-0.593
		c0.056-0.066,0.2-0.064,0.164-0.2c-0.032-0.119-0.139-0.146-0.241-0.167c-0.27-0.059-0.531,0.027-0.795,0.058
		c-0.086,0.01-0.17,0.034-0.257,0.035c-0.094,0.001-0.154-0.046-0.147-0.14C30.56,14.427,30.541,14.238,30.672,14.088z"/>
	<path fill-rule="evenodd" clip-rule="evenodd" fill="#FFFFFF" d="M28.908,14.184c-0.43,0.423-0.578,1.3-0.309,1.83
		c0.142,0.278,0.378,0.389,0.679,0.389c0.228-0.001,0.445-0.043,0.646-0.155c0.128-0.073,0.151-0.059,0.188,0.118
		c-0.049,0.241,0.006,0.506-0.156,0.724c-0.028,0.147-0.174,0.129-0.266,0.187c-0.162,0.131-0.357,0.118-0.547,0.118
		c-0.899,0.001-1.487-0.495-1.653-1.378c-0.125-0.66-0.043-1.293,0.215-1.909c0.038-0.091,0.109-0.16,0.164-0.24
		c0.7-0.92,1.514-1.166,2.549-0.8c0.116,0.041,0.14,0.105,0.12,0.215c-0.036,0.196-0.079,0.392-0.091,0.59
		c-0.011,0.191-0.098,0.186-0.23,0.127c-0.059,0.033-0.118,0.021-0.176,0.002C29.633,13.875,29.26,13.961,28.908,14.184z"/>
	<path fill-rule="evenodd" clip-rule="evenodd" fill="#FFFEFF" d="M21.538,13.509c0.035-0.075,0.015-0.17,0.085-0.232
		c0.3,0.04,0.607-0.043,0.905,0.048c0.026,0.046,0.039,0.098,0.033,0.15c-0.016,0.131,0.021,0.22,0.168,0.237
		c0.051,0.006,0.101,0.026,0.138,0.067c0.16,0.176-0.019,0.852-0.248,0.947c-0.025,0.004-0.051,0.005-0.076,0.005
		c-0.075,0.003-0.163-0.022-0.197,0.082c-0.018,0.058-0.038,0.115-0.039,0.176c-0.031,0.334-0.133,0.658-0.155,0.992
		c-0.022,0.337,0.004,0.361,0.339,0.396c0.193,0.064,0.161,0.18,0.069,0.309c-0.019,0.102-0.058,0.204-0.053,0.304
		c0.01,0.201-0.104,0.271-0.27,0.307c-0.466,0.255-1.08,0.063-1.207-0.463c-0.03-0.215-0.021-0.431-0.009-0.646
		c0.104-0.733,0.236-1.462,0.359-2.192C21.41,13.825,21.414,13.647,21.538,13.509z"/>
	<path fill-rule="evenodd" clip-rule="evenodd" fill="#CC2227" d="M22.509,16.411c-0.379,0.083-0.481,0.014-0.438-0.354
		c0.045-0.384,0.13-0.764,0.197-1.145c0.125-0.042,0.19-0.151,0.273-0.241c0.172,0.015,0.246-0.069,0.252-0.236
		c0.004-0.112,0.021-0.225,0.046-0.333c0.049-0.209,0.042-0.362-0.242-0.313c-0.124,0.021-0.176-0.029-0.135-0.162
		c0.031-0.098,0.044-0.202,0.066-0.303c0.103-0.008,0.206-0.024,0.309-0.024c1.455-0.002,2.91-0.001,4.365-0.001
		c0.444,0,0.444,0,0.456,0.467c-0.23,0.108-0.482,0.171-0.675,0.354c-0.05,0.047-0.125,0.028-0.142-0.047
		c-0.038-0.169-0.127-0.244-0.308-0.233c-0.204,0.012-0.423-0.034-0.531,0.211c-0.14,0.062-0.187,0.173-0.22,0.32
		c-0.043,0.191,0.036,0.429-0.184,0.563c-0.101-0.032-0.128-0.122-0.131-0.206c-0.034-0.902-1.203-1.191-1.878-0.7
		c-0.142,0.103-0.25,0.242-0.393,0.342c-0.087,0.05-0.155,0.118-0.202,0.207c-0.014,0.022-0.029,0.043-0.045,0.063
		c-0.253,0.365-0.375,0.771-0.387,1.213C22.556,16.04,22.609,16.233,22.509,16.411z"/>
	<path fill-rule="evenodd" clip-rule="evenodd" fill="#FFFEFE" d="M25.985,14.027c0.008-0.197,0.111-0.269,0.302-0.239
		c0.067,0.011,0.138,0.002,0.207,0.002c0.37,0,0.37,0,0.407,0.364c0.216-0.226,0.428-0.432,0.757-0.389
		c0,0.048,0.001,0.097,0.001,0.146c0.021,0.109-0.021,0.208-0.05,0.31c-0.105,0.195-0.063,0.457-0.272,0.604
		c-0.066-0.015-0.133-0.026-0.193,0.02c-0.063,0.079-0.098,0.185-0.209,0.217c-0.262,0.466-0.267,0.996-0.37,1.501
		c-0.032,0.161-0.057,0.325-0.061,0.489c-0.005,0.181-0.096,0.238-0.257,0.23c-0.025,0.02-0.053,0.034-0.083,0.045
		c-0.218,0.01-0.438,0.057-0.65-0.041c-0.079-0.101-0.053-0.213-0.036-0.324c0.127-0.856,0.257-1.713,0.385-2.57
		C25.882,14.264,25.899,14.134,25.985,14.027z"/>
	<path fill-rule="evenodd" clip-rule="evenodd" fill="#FFFEFE" d="M34.353,15.082c-0.215,0.353-0.231,0.76-0.308,1.149
		c-0.053,0.264-0.1,0.531-0.115,0.8c-0.011,0.19-0.084,0.264-0.264,0.253c-0.197,0.107-0.407,0.067-0.612,0.047
		c-0.163-0.017-0.176-0.143-0.161-0.274c0.042-0.381,0.112-0.757,0.167-1.135c0.076-0.517,0.148-1.033,0.234-1.548
		c0.02-0.118,0.022-0.245,0.112-0.341c0.082-0.258,0.219-0.294,0.772-0.241c0.282,0.026,0.031,0.249,0.155,0.343
		c0.22-0.167,0.407-0.448,0.771-0.339c-0.072,0.273-0.213,0.517-0.25,0.792c0.018,0.115,0.02,0.224-0.112,0.279
		c-0.054,0.014-0.11,0.017-0.16,0.045c-0.057,0.033-0.097,0.085-0.152,0.119C34.403,15.044,34.369,15.051,34.353,15.082z"/>
	<path fill-rule="evenodd" clip-rule="evenodd" fill="#23215F" d="M27.337,14.825c0.102-0.192,0.098-0.421,0.217-0.606
		c0.072-0.081,0.051-0.249,0.222-0.238c0.019,0.04,0.019,0.078-0.008,0.114c-0.207,0.587-0.323,1.184-0.221,1.812
		c0.182,1.121,0.948,1.521,1.938,1.392c0.068-0.01,0.138-0.016,0.206-0.022c0.008,0.113-0.045,0.179-0.156,0.201
		c-0.742,0.152-1.439,0.138-1.961-0.528C27.177,16.275,27.195,15.557,27.337,14.825z"/>
	<path fill-rule="evenodd" clip-rule="evenodd" fill="#25225F" d="M33.406,14.031c-0.112,0.787-0.224,1.574-0.337,2.361
		c-0.034,0.239-0.064,0.48-0.113,0.718c-0.027,0.134,0.014,0.165,0.14,0.162c0.189-0.005,0.38,0.006,0.57,0.011
		c0.014,0.176-0.06,0.251-0.243,0.234c-0.164-0.015-0.332-0.018-0.495,0c-0.222,0.025-0.274-0.068-0.224-0.263
		c-0.002-0.119-0.021-0.238,0.013-0.355c0.055-0.287,0.105-0.574,0.117-0.866c0.084-0.17,0.123-0.349,0.104-0.539
		c0.018-0.12,0.034-0.24,0.051-0.36c0.07-0.149-0.032-0.319,0.058-0.466c0.145-0.125,0.09-0.307,0.118-0.46
		C33.194,14.047,33.263,14.006,33.406,14.031z"/>
	<path fill-rule="evenodd" clip-rule="evenodd" fill="#252260" d="M34.817,14.935c-0.102,0.421-0.18,0.841-0.113,1.279
		c0.115,0.76,0.624,1.336,1.516,1.053c0.015,0.01,0.02,0.02,0.015,0.028c-0.005,0.01-0.01,0.015-0.015,0.015
		c-0.315,0.27-0.668,0.357-1.06,0.195c-0.459-0.19-0.641-0.581-0.715-1.038c-0.07-0.435-0.002-0.861,0.106-1.282
		c0.042-0.121,0.004-0.283,0.175-0.337C34.778,14.854,34.851,14.84,34.817,14.935z"/>
	<path fill-rule="evenodd" clip-rule="evenodd" fill="#262360" d="M30.672,14.088c-0.021,0.195-0.127,0.47-0.039,0.566
		c0.107,0.117,0.36-0.047,0.557-0.06c0.207-0.014,0.413-0.053,0.62-0.008c0.065,0.014,0.137,0.033,0.19,0.072
		c0.101,0.074,0.131,0.196,0.092,0.303c-0.048,0.133-0.176,0.05-0.27,0.058c-0.053-0.158-0.18-0.193-0.326-0.203
		c-0.33-0.021-0.654,0.011-0.975,0.094c-0.146,0.038-0.214,0.018-0.166-0.156c0.034-0.124,0.058-0.255,0.059-0.383
		C30.414,14.188,30.501,14.104,30.672,14.088z"/>
	<path fill-rule="evenodd" clip-rule="evenodd" fill="#262361" d="M29.956,17.089c0.013-0.238,0.055-0.471,0.109-0.702
		c0.16,0.063,0.017,0.224,0.102,0.311c0.28,0.615,0.498,0.705,1.352,0.555C31.079,17.754,30.37,17.68,29.956,17.089z"/>
	<path fill-rule="evenodd" clip-rule="evenodd" fill="#282460" d="M28.908,14.184c0.34-0.358,0.774-0.419,1.309-0.185
		c-0.021,0.092-0.041,0.184-0.068,0.311C29.748,14.111,29.337,14.027,28.908,14.184z"/>
	<path fill-rule="evenodd" clip-rule="evenodd" fill="#2F265C" d="M36.22,17.31c-0.001-0.015-0.001-0.028,0-0.043
		c0.08-0.053,0.16-0.106,0.24-0.159c0.158-0.041,0.054,0.145,0.142,0.165c0.209,0.003,0.419,0.006,0.629,0.01
		c0.008,0.169-0.054,0.26-0.242,0.236c-0.11-0.013-0.226,0-0.338-0.003c-0.162-0.003-0.375,0.072-0.356-0.222
		C36.27,17.299,36.244,17.304,36.22,17.31z"/>
	<path fill-rule="evenodd" clip-rule="evenodd" fill="#2F275F" d="M31.562,17.215c0.094-0.069,0.188-0.14,0.335-0.249
		c-0.082,0.339,0.104,0.312,0.28,0.305c0.086-0.003,0.172,0.007,0.258,0.011c0.01,0.166-0.044,0.269-0.235,0.235
		c-0.043-0.007-0.088-0.006-0.131,0C31.819,17.551,31.599,17.538,31.562,17.215z"/>
	<path fill-rule="evenodd" clip-rule="evenodd" fill="#292562" d="M37.146,13.253c-0.043,0.29-0.086,0.58-0.129,0.873
		c-0.119-0.004-0.149-0.098-0.212-0.15c0.031-0.176,0.074-0.352,0.092-0.529C36.913,13.281,36.988,13.22,37.146,13.253z"/>
	<path fill-rule="evenodd" clip-rule="evenodd" fill="#3A2E63" d="M30.332,15.613c-0.056,0.133-0.111,0.267-0.167,0.4
		c-0.034,0.114-0.049,0.257-0.229,0.159C30.006,15.942,30.115,15.739,30.332,15.613z"/>
	<path fill-rule="evenodd" clip-rule="evenodd" fill="#FBB148" d="M38.196,16.799c0.124,0.083,0.27,0.161,0.068,0.313
		c-0.075,0.09-0.158,0.144-0.271,0.058c-0.039-0.088,0.075-0.104,0.08-0.171c0.011-0.065-0.046-0.092-0.079-0.132
		c-0.012-0.023-0.013-0.046-0.002-0.069C38.062,16.738,38.129,16.741,38.196,16.799z"/>
	<path fill-rule="evenodd" clip-rule="evenodd" fill="#32327F" d="M29.936,16.172c0.141,0.04,0.169-0.082,0.229-0.159
		c-0.024,0.229-0.021,0.456,0.002,0.685c-0.108-0.079-0.001-0.229-0.102-0.311c-0.008-0.086,0.021-0.209-0.141-0.14
		C29.914,16.22,29.904,16.193,29.936,16.172z"/>
	<path fill-rule="evenodd" clip-rule="evenodd" fill="#DA8B27" d="M34.719,14.867c-0.056,0.105-0.111,0.211-0.167,0.317
		c-0.017-0.132-0.12-0.094-0.199-0.103c0.01-0.017,0.02-0.033,0.029-0.05c0.08-0.038,0.138-0.096,0.176-0.176
		c0.046-0.047,0.101-0.048,0.159-0.032c0.012,0.009,0.017,0.018,0.013,0.028C34.727,14.862,34.723,14.867,34.719,14.867z"/>
	<path fill-rule="evenodd" clip-rule="evenodd" fill="#403975" d="M34.719,14.867c-0.004-0.014-0.004-0.029-0.002-0.043
		c0.129-0.032,0.074-0.17,0.138-0.239c0.048-0.029,0.076-0.09,0.145-0.081c-0.033,0.155-0.104,0.294-0.182,0.43
		C34.798,14.892,34.765,14.871,34.719,14.867z"/>
	<path fill-rule="evenodd" clip-rule="evenodd" fill="#FDBE64" d="M38.137,16.994c0.021,0.124-0.068,0.116-0.146,0.121
		c-0.034,0.03-0.068,0.028-0.101-0.003c0.007-0.091,0.015-0.182,0.021-0.272c0.032-0.018,0.062-0.018,0.086,0.014h-0.001
		C38.047,16.896,38.071,16.967,38.137,16.994z"/>
	<path fill-rule="evenodd" clip-rule="evenodd" fill="#FFDDAA" d="M37.89,17.112c0.033,0.001,0.067,0.002,0.101,0.003
		c0.092,0.104,0.183,0.034,0.273-0.003C38.157,17.324,38.061,17.324,37.89,17.112z"/>
	<path fill-rule="evenodd" clip-rule="evenodd" fill="#DDA55A" d="M33.047,14.669c-0.044,0.152,0.069,0.324-0.058,0.466
		c0.002-0.209,0.004-0.418,0.006-0.627C33.049,14.549,33.035,14.613,33.047,14.669z"/>
	<path fill-rule="evenodd" clip-rule="evenodd" fill="#FFDBA6" d="M37.997,16.854c-0.028-0.005-0.058-0.009-0.086-0.014
		c0.109-0.179,0.185-0.189,0.285-0.041C38.127,16.804,38.046,16.771,37.997,16.854z"/>
	<path fill-rule="evenodd" clip-rule="evenodd" fill="#B53A34" d="M27.763,13.973c-0.07,0.082-0.14,0.164-0.209,0.246
		c-0.004-0.116,0.045-0.213,0.105-0.307c0.033,0.006,0.067,0.013,0.101,0.02c0.013,0.009,0.017,0.018,0.014,0.027
		C27.77,13.968,27.767,13.973,27.763,13.973z"/>
	<path fill-rule="evenodd" clip-rule="evenodd" fill="#ECB467" d="M32.717,16.899c0.021,0.119,0.025,0.238-0.013,0.355l-0.021,0.01
		l-0.022-0.003C32.682,17.142,32.651,17.013,32.717,16.899z"/>
	<path fill-rule="evenodd" clip-rule="evenodd" fill="#2C296E" d="M27.763,13.973c0.003-0.014,0.002-0.028-0.003-0.042
		c0.036-0.021,0.073-0.043,0.109-0.064c0.008,0.095-0.048,0.161-0.102,0.228C27.766,14.054,27.764,14.013,27.763,13.973z"/>
	<path fill-rule="evenodd" clip-rule="evenodd" fill="#FFFFFF" d="M15.677,16.815c-0.017,0.082-0.046,0.163-0.048,0.246
		c-0.004,0.171-0.097,0.228-0.251,0.221c-0.046,0.022-0.092,0.047-0.145,0.055c-0.56,0.094-0.679-0.021-0.587-0.573
		c0.094-0.563,0.171-1.127,0.273-1.688c0.03-0.104,0.06-0.209,0.07-0.317c0.008-0.022,0.017-0.043,0.026-0.065
		c0.014-0.032-0.004,0.011,0.008-0.022c0.009-0.023,0.008-0.025-0.004,0c-0.036,0.057-0.04,0.119-0.048,0.181
		c-0.059,0.191-0.121,0.381-0.187,0.57c-0.031,0.089-0.059,0.186-0.164,0.222c-0.171,0.486-0.348,0.969-0.509,1.459
		c-0.043,0.131-0.113,0.178-0.237,0.179c-0.389,0.142-0.501,0.063-0.547-0.333c-0.066-0.563-0.042-1.127-0.045-1.69
		c0.014-0.17,0.005-0.343,0.027-0.513c0.002-0.017,0.003-0.035-0.001-0.051c-0.007-0.026-0.01-0.032-0.005-0.017
		c0.007,0.025,0.005,0.051,0.004,0.078c-0.037,0.256-0.067,0.511-0.118,0.763c-0.018,0.089-0.009,0.192-0.105,0.25
		c-0.08,0.429-0.175,0.856-0.234,1.289c-0.024,0.182-0.104,0.229-0.258,0.224c-0.06,0.038-0.125,0.056-0.196,0.063
		c-0.458,0.045-0.548-0.049-0.474-0.503c0.177-1.097,0.378-2.189,0.564-3.284c0.019-0.111,0.032-0.225,0.123-0.308
		c0.019-0.171,0.092-0.249,0.286-0.235c0.293,0.021,0.59,0.014,0.885,0.002c0.164-0.006,0.204,0.055,0.205,0.21
		c0.003,0.564,0.02,1.128,0.031,1.692c0.078,0.119,0.015,0.251,0.027,0.353c0.024-0.202,0.132-0.401,0.198-0.612
		c0.117-0.374,0.246-0.743,0.37-1.114c0.036-0.107,0.067-0.217,0.157-0.295c0.047-0.189,0.161-0.249,0.357-0.236
		c0.311,0.02,0.624,0.019,0.935,0.001c0.215-0.013,0.238,0.064,0.205,0.253c-0.152,0.877-0.291,1.756-0.435,2.635
		C15.887,16.226,15.838,16.53,15.677,16.815z"/>
	<path fill-rule="evenodd" clip-rule="evenodd" fill="#FFFFFF" d="M18.387,17.282c-0.047,0-0.094,0-0.141,0
		c-0.219,0.069-0.426,0.116-0.622-0.079c-0.094-0.094-0.203,0.047-0.311,0.054c-0.347,0.211-0.695,0.189-1.033-0.012
		c-0.36-0.216-0.416-0.582-0.414-0.953c0.001-0.255,0.075-0.498,0.27-0.685c0.386-0.466,0.918-0.567,1.481-0.589
		c0.061-0.063,0.201-0.062,0.171-0.195c-0.027-0.122-0.136-0.147-0.238-0.171c-0.262-0.059-0.516,0.025-0.772,0.053
		c-0.094,0.01-0.187,0.039-0.283,0.039c-0.095,0-0.152-0.049-0.146-0.143c0.013-0.179-0.001-0.367,0.126-0.519
		c0.024-0.091,0.041-0.171,0.16-0.208c0.43-0.13,0.862-0.192,1.31-0.122c0.468,0.073,0.784,0.309,0.865,0.8
		c0.137,0.14,0.066,0.305,0.058,0.464c-0.009,0.163-0.028,0.325-0.058,0.485c-0.068,0.389-0.137,0.777-0.203,1.167
		c-0.002,0.155-0.019,0.31-0.061,0.459C18.524,17.209,18.513,17.307,18.387,17.282z"/>
	<path fill-rule="evenodd" clip-rule="evenodd" fill="#FFFFFF" d="M23.149,14.345c0.343-0.403,0.754-0.659,1.309-0.617
		c0.607,0.046,0.973,0.377,1.071,0.978c0.013,0.077,0.028,0.154,0.042,0.23c0.153,0.219,0.006,0.439,0.001,0.659
		c-0.042,0.172-0.098,0.331-0.317,0.337c-0.411,0.01-0.823-0.002-1.234,0.009c-0.095,0.002-0.237-0.058-0.263,0.116
		c0.065,0.271,0.284,0.326,0.511,0.353c0.275,0.032,0.548,0,0.817-0.071c0.09-0.023,0.179-0.067,0.275-0.023
		c0.083,0.086,0.033,0.183,0.024,0.276c-0.005,0.067-0.011,0.135-0.027,0.2c-0.032,0.087-0.026,0.183-0.055,0.271
		c-0.011,0.025-0.028,0.045-0.052,0.059c-0.047,0.116-0.178,0.089-0.256,0.15c-0.355,0.217-0.745,0.145-1.115,0.098
		c-0.658-0.082-1.084-0.513-1.174-1.176c-0.077-0.564-0.053-1.127,0.262-1.636l-0.003,0.004
		C23.033,14.494,23.065,14.398,23.149,14.345z"/>
	<path fill-rule="evenodd" clip-rule="evenodd" fill="#FFFEFF" d="M19.125,14.24c0.449-0.546,1.058-0.532,1.683-0.498
		c0.272,0.015,0.391,0.104,0.322,0.38c0.011,0.173,0.044,0.35-0.082,0.5c-0.06,0.045-0.129,0.053-0.201,0.051
		c-0.168-0.025-0.335-0.068-0.508-0.042c-0.127,0.019-0.257,0.037-0.316,0.178c0.028,0.185,0.188,0.231,0.321,0.298
		c0.273,0.138,0.517,0.302,0.634,0.602c0.03,0.062,0.054,0.125,0.066,0.194c0.01,0.204-0.021,0.406-0.012,0.61
		c-0.033,0.157-0.071,0.313-0.23,0.397c-0.147,0.112-0.295,0.225-0.442,0.337c-0.341,0.199-0.716,0.152-1.085,0.146
		c-0.035,0-0.069-0.009-0.104-0.013c-0.685-0.082-0.609-0.099-0.543-0.706c0.099-0.3,0.141-0.326,0.44-0.285
		c0.236,0.033,0.471,0.109,0.711,0.034c0.25-0.115,0.264-0.188,0.063-0.35c-0.168-0.136-0.377-0.208-0.544-0.348
		C18.861,15.359,18.778,14.664,19.125,14.24z"/>
	<path fill-rule="evenodd" clip-rule="evenodd" fill="#242160" d="M22.968,14.556c0.021,0.109-0.034,0.202-0.07,0.298
		c-0.17,0.458-0.204,0.926-0.104,1.403c0.124,0.587,0.515,0.985,1.193,1.064c0.34,0.039,0.673-0.007,1.007-0.052
		c0,0.11-0.051,0.176-0.162,0.203c-0.426,0.103-0.852,0.156-1.287,0.055c-0.479-0.11-0.793-0.404-0.986-0.845
		c-0.05-0.084,0.122-0.211-0.052-0.272c-0.075-0.57-0.018-1.12,0.269-1.629C22.825,14.696,22.85,14.584,22.968,14.556z"/>
	<path fill-rule="evenodd" clip-rule="evenodd" fill="#24215F" d="M12.606,13.25c-0.207,1.221-0.413,2.442-0.623,3.664
		c-0.062,0.358-0.068,0.356,0.295,0.357c0.104,0.001,0.208,0.007,0.312,0.011c0.007,0.192-0.085,0.243-0.272,0.242
		c-0.677-0.003-0.669,0.006-0.548-0.671c0.203-1.133,0.401-2.267,0.586-3.403C12.385,13.275,12.453,13.229,12.606,13.25z"/>
	<path fill-rule="evenodd" clip-rule="evenodd" fill="#25215F" d="M25.251,17.12c-0.004-0.015-0.002-0.029,0.005-0.043
		c0.047-0.053,0.021-0.123,0.042-0.182c0.055-0.096,0.034-0.203,0.049-0.305c0.033-0.09,0.061-0.181,0.034-0.278
		c-0.063-0.256,0.119-0.465,0.131-0.707c0.02-0.224,0.039-0.447,0.058-0.67c0.162-0.203,0.117-0.456,0.154-0.686
		c0.028-0.172,0.087-0.248,0.26-0.223c-0.145,0.991-0.29,1.982-0.435,2.974c-0.013,0.085-0.021,0.171-0.03,0.257
		c0.223,0.08,0.451,0.034,0.678,0.023c0.017-0.009,0.032-0.008,0.049,0.001c0.004,0.184-0.078,0.265-0.268,0.239
		c-0.093-0.013-0.188-0.002-0.283-0.002C25.294,17.52,25.294,17.52,25.251,17.12z"/>
	<path fill-rule="evenodd" clip-rule="evenodd" fill="#25215F" d="M13.083,15.769c0.058-0.35,0.116-0.701,0.174-1.051
		c0.117,0.001,0.068,0.092,0.076,0.147c0.014,0.11-0.02,0.223,0.023,0.331c0.014,0.586,0.042,1.173,0.036,1.76
		c-0.003,0.257,0.067,0.365,0.329,0.316c0.049-0.01,0.103,0.006,0.154,0.01c-0.073,0.197-0.503,0.339-0.679,0.223
		c-0.08-0.053-0.05-0.141-0.053-0.214C13.12,16.783,13.102,16.276,13.083,15.769z"/>
	<path fill-rule="evenodd" clip-rule="evenodd" fill="#25215F" d="M14.62,15.644c0.104-0.273,0.208-0.546,0.311-0.819
		c0.139,0.042,0.06,0.138,0.053,0.216c-0.098,0.651-0.189,1.304-0.299,1.954c-0.035,0.206-0.017,0.307,0.225,0.28
		c0.153-0.018,0.312,0.004,0.467,0.008c-0.007,0.179-0.084,0.273-0.277,0.238c-0.042-0.008-0.086-0.001-0.13-0.001
		c-0.604,0-0.602,0-0.494-0.609c0.063-0.357,0.12-0.717,0.175-1.076C14.661,15.771,14.695,15.696,14.62,15.644z"/>
	<path fill-rule="evenodd" clip-rule="evenodd" fill="#252361" d="M19.125,14.24c-0.324,0.759-0.143,1.277,0.579,1.663
		c0.067,0.036,0.129,0.082,0.191,0.123c0.098,0.065,0.199,0.119,0.18,0.247c-0.02,0.135-0.118,0.204-0.256,0.211
		c-0.157-0.15-0.339-0.259-0.529-0.362c-0.261-0.142-0.496-0.317-0.542-0.645c0.035-0.307,0.087-0.613,0.063-0.924
		C18.914,14.446,18.971,14.294,19.125,14.24z"/>
	<path fill-rule="evenodd" clip-rule="evenodd" fill="#252260" d="M16.136,15.607c-0.153,0.3-0.217,0.611-0.181,0.953
		c0.07,0.667,0.677,0.866,1.15,0.739c0.075-0.02,0.148-0.047,0.222-0.07c0.019,0.009,0.026,0.019,0.02,0.028
		c-0.006,0.01-0.012,0.015-0.018,0.015c-0.648,0.562-1.376,0.36-1.652-0.457c0.05-0.304,0.101-0.607,0.151-0.912
		C15.938,15.813,15.994,15.665,16.136,15.607z"/>
	<path fill-rule="evenodd" clip-rule="evenodd" fill="#262260" d="M16.476,14.083c-0.012,0.102-0.022,0.205-0.036,0.307
		c-0.042,0.32-0.042,0.321,0.286,0.252c0.237-0.049,0.476-0.084,0.718-0.075c0.094,0.003,0.191,0.016,0.279,0.045
		c0.156,0.053,0.209,0.19,0.175,0.333c-0.039,0.166-0.182,0.061-0.28,0.073c-0.05-0.162-0.182-0.191-0.326-0.201
		c-0.294-0.02-0.588-0.001-0.873,0.073c-0.214,0.056-0.336,0.055-0.25-0.22c0.031-0.097,0.049-0.204,0.047-0.305
		C16.212,14.179,16.309,14.103,16.476,14.083z"/>
	<path fill-rule="evenodd" clip-rule="evenodd" fill="#262260" d="M20.981,15.859c-0.019-0.053-0.037-0.106-0.056-0.16
		c-0.043-0.335,0.077-0.652,0.111-0.979c0.082-0.167,0.066-0.363,0.152-0.529c0.034-0.16,0.084-0.318,0.098-0.479
		c0.014-0.173,0.095-0.225,0.251-0.203c-0.15,0.888-0.301,1.775-0.451,2.663c-0.082,0.019-0.072-0.043-0.079-0.091
		C20.999,16.007,21.031,15.928,20.981,15.859z"/>
	<path fill-rule="evenodd" clip-rule="evenodd" fill="#272260" d="M18.695,16.668c0,0.009,0.002,0.018,0.001,0.026
		c-0.037,0.554-0.037,0.555,0.529,0.611c0.38,0.038,0.757,0.001,1.133-0.06c-0.027,0.152-0.168,0.166-0.272,0.201
		c-0.527,0.179-1.062,0.112-1.596,0.033c-0.129-0.02-0.107-0.112-0.104-0.198c0.167-0.06,0.081-0.217,0.121-0.325
		c0.037-0.1,0.001-0.219,0.055-0.319C18.614,16.613,18.667,16.587,18.695,16.668z"/>
	<path fill-rule="evenodd" clip-rule="evenodd" fill="#262261" d="M20.801,16.909c0.06-0.123,0.12-0.245,0.18-0.368
		c0.082-0.016,0.07,0.045,0.078,0.093c0.011,0.072-0.028,0.152,0.031,0.218c0.249,0.471,0.454,0.549,1.148,0.442
		c-0.006,0.067-0.001,0.134-0.077,0.179C21.604,17.806,20.947,17.535,20.801,16.909z"/>
	<path fill-rule="evenodd" clip-rule="evenodd" fill="#2C2764" d="M14.766,13.25c-0.23,0.702-0.459,1.403-0.71,2.168
		c-0.069-0.208-0.053-0.354-0.042-0.5c0.17-0.489,0.341-0.978,0.509-1.468C14.564,13.332,14.6,13.215,14.766,13.25z"/>
	<path fill-rule="evenodd" clip-rule="evenodd" fill="#2C215E" d="M17.329,17.272c-0.001-0.015-0.001-0.028-0.001-0.043
		c0.105-0.071,0.21-0.143,0.35-0.238c-0.047,0.296,0.126,0.292,0.312,0.28c0.085-0.006,0.171,0.007,0.256,0.011
		c0.002,0.181-0.07,0.274-0.267,0.24c-0.067-0.012-0.138-0.001-0.208-0.002c-0.171-0.003-0.38,0.055-0.37-0.236
		C17.402,17.281,17.354,17.276,17.329,17.272z"/>
	<path fill-rule="evenodd" clip-rule="evenodd" fill="#C1282A" d="M21.188,14.191c0,0.185-0.035,0.363-0.094,0.536
		c-0.051-0.025-0.068-0.068-0.066-0.122c0.034-0.161,0.067-0.322,0.101-0.483C21.149,14.145,21.169,14.168,21.188,14.191z"/>
	<path fill-rule="evenodd" clip-rule="evenodd" fill="#593460" d="M26.935,15.062c0.034-0.106,0.097-0.186,0.209-0.217
		C27.154,14.995,27.113,15.095,26.935,15.062z"/>
	<path fill-rule="evenodd" clip-rule="evenodd" fill="#FFE3C2" d="M37.999,19.826c-0.031-0.019-0.063-0.037-0.094-0.056
		c-0.029-0.092,0.029-0.172,0.038-0.258c0.071,0.02,0.143-0.08,0.215-0.002c-0.019,0.017-0.038,0.032-0.057,0.049
		c-0.028,0.071-0.07,0.141-0.038,0.224C38.058,19.821,38.044,19.848,37.999,19.826z"/>
	<path fill-rule="evenodd" clip-rule="evenodd" fill="#FCBA6E" d="M38.046,19.79c-0.072-0.099-0.103-0.188,0.056-0.23
		c0.104,0.073-0.026,0.14-0.006,0.21C38.086,19.794,38.069,19.801,38.046,19.79z"/>
	<path fill-rule="evenodd" clip-rule="evenodd" fill="#FFE6CA" d="M38.046,19.79c0.017-0.007,0.033-0.014,0.05-0.021
		c0.022,0.048,0.064,0.057,0.11,0.059c-0.004,0.014-0.005,0.027-0.005,0.04c-0.067,0.001-0.135,0.001-0.203,0.002
		c0.001-0.015,0.001-0.029,0.001-0.044C38.015,19.814,38.03,19.802,38.046,19.79z"/>
	<path fill-rule="evenodd" clip-rule="evenodd" fill="#F7991E" d="M36.365,16.329c-0.355,0.2-0.604,0.092-0.673-0.304
		c-0.073-0.414-0.022-0.805,0.25-1.146c0.242-0.089,0.438-0.013,0.557,0.254C36.684,15.552,36.649,15.957,36.365,16.329z"/>
	<path fill-rule="evenodd" clip-rule="evenodd" fill="#262361" d="M36.365,16.329c0.112-0.282,0.193-0.57,0.163-0.879
		c-0.039-0.389-0.224-0.57-0.586-0.571c0.113-0.176,0.271-0.271,0.48-0.22c0.196,0.048,0.281,0.209,0.332,0.393
		C36.886,15.522,36.717,16.078,36.365,16.329z"/>
	<path fill-rule="evenodd" clip-rule="evenodd" fill="#505095" d="M36.602,17.272c-0.106-0.005-0.042-0.155-0.142-0.165
		c0.021-0.04,0.049-0.074,0.097-0.065c0.048,0.01,0.03,0.053,0.029,0.084C36.584,17.176,36.563,17.227,36.602,17.272z"/>
	<path fill-rule="evenodd" clip-rule="evenodd" fill="#F39720" d="M31.618,16.446c-0.139,0.119-0.305,0.155-0.442,0.039
		c-0.136-0.115-0.184-0.284-0.081-0.46c0.079-0.053,0.161-0.103,0.256-0.12c0.121-0.022,0.25-0.035,0.34,0.067
		c0.092,0.104,0.061,0.226,0.009,0.341C31.678,16.36,31.652,16.406,31.618,16.446z"/>
	<path fill-rule="evenodd" clip-rule="evenodd" fill="#2A2663" d="M31.618,16.446c0.149-0.512,0.107-0.554-0.422-0.434
		c-0.033,0.008-0.068,0.009-0.102,0.013c0.173-0.288,0.465-0.28,0.745-0.295c0.107-0.006,0.12,0.067,0.114,0.156
		C31.937,16.131,31.813,16.309,31.618,16.446z"/>
	<path fill-rule="evenodd" clip-rule="evenodd" fill="#AF702F" d="M32.938,15.495c0.036,0.193,0.051,0.382-0.104,0.539
		C32.869,15.854,32.904,15.674,32.938,15.495z"/>
	<path fill-rule="evenodd" clip-rule="evenodd" fill="#2B296D" d="M21.09,16.852c-0.12-0.074,0.001-0.232-0.109-0.311
		c0-0.228,0-0.455,0.001-0.682c0.111,0.079-0.005,0.234,0.105,0.313C21.088,16.398,21.089,16.625,21.09,16.852z"/>
	<path fill-rule="evenodd" clip-rule="evenodd" fill="#3D1D55" d="M22.541,14.672c-0.005,0.178-0.075,0.282-0.273,0.241
		c0.006-0.047,0.012-0.095,0.018-0.143c0.037-0.1,0.137-0.069,0.208-0.1C22.509,14.663,22.525,14.663,22.541,14.672z"/>
	<path fill-rule="evenodd" clip-rule="evenodd" fill="#363683" d="M22.493,14.67c-0.069,0.033-0.138,0.067-0.208,0.1
		C22.282,14.585,22.411,14.677,22.493,14.67z"/>
	<path fill-rule="evenodd" clip-rule="evenodd" fill="#2D2B71" d="M23.149,14.345c-0.049,0.083-0.059,0.199-0.185,0.215
		C22.976,14.446,23.054,14.388,23.149,14.345z"/>
	<path fill-rule="evenodd" clip-rule="evenodd" fill="#303281" d="M26.198,17.281c-0.228,0.051-0.456,0.099-0.678-0.023
		C25.747,17.266,25.972,17.273,26.198,17.281z"/>
	<path fill-rule="evenodd" clip-rule="evenodd" fill="#252260" d="M34.558,14.856c0.002,0.119-0.014,0.22-0.176,0.176
		C34.412,14.945,34.467,14.882,34.558,14.856z"/>
	<path fill-rule="evenodd" clip-rule="evenodd" fill="#FEE3B9" d="M38.137,16.994c-0.25,0.157-0.079-0.108-0.141-0.141
		C38.092,16.852,38.164,16.874,38.137,16.994z"/>
	<path fill-rule="evenodd" clip-rule="evenodd" fill="#7A79AF" d="M13.356,15.196c-0.099-0.146,0.034-0.339-0.099-0.479
		c-0.013-0.099-0.015-0.196,0.082-0.327C13.368,14.696,13.381,14.945,13.356,15.196z"/>
	<path fill-rule="evenodd" clip-rule="evenodd" fill="#3E3E81" d="M14.984,15.041c-0.028-0.07,0.025-0.159-0.053-0.216
		c0.02-0.069,0.04-0.138,0.06-0.207c0.101-0.006,0.053,0.063,0.053,0.107C15.035,14.832,15.044,14.943,14.984,15.041z"/>
	<path fill-rule="evenodd" clip-rule="evenodd" fill="#6868A4" d="M15.044,14.725c-0.018-0.036-0.035-0.071-0.053-0.107
		c0.016-0.044,0.032-0.088,0.055-0.154C15.111,14.569,15.088,14.647,15.044,14.725z"/>
	<path fill-rule="evenodd" clip-rule="evenodd" fill="#CB2327" d="M18.695,16.668c-0.044-0.01-0.088-0.021-0.132-0.03
		c0.022-0.394,0.11-0.776,0.187-1.161c0.152,0.327,0.414,0.535,0.733,0.686c0.146,0.068,0.304,0.132,0.338,0.321
		c-0.255,0.093-0.515,0.045-0.758-0.021C18.84,16.402,18.73,16.443,18.695,16.668z"/>
	<path fill-rule="evenodd" clip-rule="evenodd" fill="#C92327" d="M17.488,16.347c-0.114,0.194-0.292,0.269-0.48,0.158
		c-0.171-0.101-0.209-0.285-0.115-0.477c0.053-0.045,0.117-0.074,0.18-0.098c0.141-0.052,0.294-0.079,0.412,0.034
		C17.604,16.078,17.546,16.218,17.488,16.347z"/>
	<path fill-rule="evenodd" clip-rule="evenodd" fill="#262261" d="M17.488,16.347c-0.005-0.434-0.015-0.44-0.468-0.338
		c-0.042,0.01-0.084,0.014-0.126,0.02c0.173-0.289,0.466-0.282,0.748-0.297c0.085-0.005,0.121,0.043,0.116,0.13
		C17.746,16.067,17.693,16.248,17.488,16.347z"/>
	<path fill-rule="evenodd" clip-rule="evenodd" fill="#CA2227" d="M25.513,15.606c-0.01,0.244-0.048,0.485-0.1,0.724
		c-0.015,0.025-0.031,0.027-0.05,0.004c-0.359,0.095-0.718,0.207-1.095,0.155c-0.257-0.036-0.527-0.074-0.588-0.404
		c0.079-0.108,0.198-0.089,0.307-0.091c0.284-0.006,0.568-0.002,0.852-0.002c0.15,0,0.293-0.017,0.403-0.134
		C25.431,15.879,25.488,15.759,25.513,15.606z"/>
	<path fill-rule="evenodd" clip-rule="evenodd" fill="#242160" d="M25.243,15.857c-0.009,0.167-0.084,0.228-0.262,0.223
		c-0.433-0.013-0.867,0.001-1.3,0.005c-0.068-0.158-0.043-0.247,0.156-0.242C24.305,15.853,24.774,15.853,25.243,15.857z"/>
	<path fill-rule="evenodd" clip-rule="evenodd" fill="#2C2663" d="M23.876,14.807c0.23-0.348,0.574-0.322,0.741-0.056
		c0.057,0.091,0.106,0.197,0.061,0.295c-0.057,0.123-0.18,0.062-0.279,0.056C24.253,14.954,24.089,14.839,23.876,14.807z"/>
	<path fill-rule="evenodd" clip-rule="evenodd" fill="#CC302E" d="M23.876,14.807c0.267-0.064,0.436,0.043,0.523,0.295
		c-0.121,0.005-0.242,0.018-0.362,0.014c-0.091-0.004-0.218,0.053-0.266-0.039C23.722,14.982,23.804,14.884,23.876,14.807z"/>
	<path fill-rule="evenodd" clip-rule="evenodd" fill="#AB222C" d="M25.364,16.334c0.017-0.002,0.033-0.003,0.05-0.004
		c0.001,0.091,0.024,0.186-0.052,0.261c-0.011,0.024-0.024,0.026-0.039,0.004C25.29,16.5,25.377,16.426,25.364,16.334z"/>
	<path fill-rule="evenodd" clip-rule="evenodd" fill="#AC2024" d="M25.322,16.595c0.013-0.001,0.026-0.002,0.039-0.004
		c0.016,0.111,0.019,0.222-0.04,0.325c-0.043-0.038-0.036-0.082-0.015-0.128C25.312,16.724,25.317,16.659,25.322,16.595z"/>
	<path fill-rule="evenodd" clip-rule="evenodd" fill="#CF3938" d="M25.306,16.788c0.005,0.043,0.01,0.085,0.015,0.128
		c0.002,0.063,0.005,0.127-0.065,0.161C25.25,16.978,25.248,16.878,25.306,16.788z"/>
	<path fill-rule="evenodd" clip-rule="evenodd" fill="#CB2327" d="M21.028,14.605c0.049,0.026,0.055,0.075,0.066,0.122
		c-0.036,0.328-0.078,0.654-0.168,0.972c-0.158-0.285-0.411-0.454-0.701-0.584c-0.126-0.057-0.286-0.101-0.277-0.294
		c0.157-0.127,0.343-0.069,0.516-0.067c0.148,0.001,0.266-0.032,0.359-0.147C20.892,14.606,20.96,14.605,21.028,14.605z"/>
	<path fill-rule="evenodd" clip-rule="evenodd" fill="#302763" d="M20.823,14.607c-0.008,0.187-0.072,0.268-0.287,0.225
		c-0.189-0.038-0.392-0.01-0.588-0.011c-0.003-0.157,0.102-0.206,0.23-0.232C20.395,14.546,20.609,14.554,20.823,14.607z"/>
</g>
</svg>
