<?xml version="1.0" encoding="utf-8"?>
<!-- Generator: Adobe Illustrator 16.0.0, SVG Export Plug-In . SVG Version: 6.00 Build 0)  -->
<!DOCTYPE svg PUBLIC "-//W3C//DTD SVG 1.1//EN" "http://www.w3.org/Graphics/SVG/1.1/DTD/svg11.dtd">
<svg version="1.1" id="Layer_1" xmlns="http://www.w3.org/2000/svg" xmlns:xlink="http://www.w3.org/1999/xlink" x="0px" y="0px"
	 width="50px" height="30px" viewBox="0 0 50 30" enable-background="new 0 0 50 30" xml:space="preserve">
<path fill="#FFFFFF" d="M50,28c0,1.104-0.896,2-2,2H2c-1.104,0-2-0.896-2-2V2c0-1.104,0.896-2,2-2h46c1.104,0,2,0.896,2,2V28z"/>
<g>
	<path fill-rule="evenodd" clip-rule="evenodd" fill="#296293" d="M32.453,12.945c-0.044,0.429-0.131,0.847-0.345,1.228
		c-0.219,0.389-0.521,0.689-0.907,0.916c-0.308,0.18-0.643,0.281-0.979,0.378c-0.109,0.031-0.232,0.038-0.349,0.059
		c-0.039,0.018-0.083-0.004-0.121,0.018l-0.01-0.002l-0.008,0.005c-0.061,0.027-0.129-0.007-0.189,0.021
		c-0.414,0.031-0.828,0.021-1.242-0.001c-0.043-0.014-0.085-0.016-0.128,0c-0.125-0.016-0.207,0.042-0.25,0.156
		c-0.091,0.24-0.148,0.489-0.212,0.737c-0.093,0.358-0.182,0.719-0.279,1.077c-0.04,0.15-0.14,0.224-0.296,0.226
		c-0.386,0.003-0.772,0.002-1.158,0.001c-0.104,0-0.175-0.044-0.193-0.153c-0.013-0.062-0.013-0.123,0-0.185
		c0.035-0.142,0.077-0.283,0.102-0.428c0.037-0.216,0.096-0.428,0.144-0.642c0.036-0.159,0.065-0.322,0.111-0.481
		c0.054-0.183,0.082-0.373,0.125-0.559c0.049-0.212,0.109-0.421,0.153-0.634c0.08-0.385,0.182-0.765,0.262-1.15
		c0.045-0.216,0.104-0.432,0.157-0.648c0.097-0.402,0.184-0.807,0.277-1.209c0.035-0.15,0.071-0.3,0.118-0.447
		c0.038-0.122,0.118-0.21,0.251-0.238c0.069-0.014,0.142,0.009,0.212-0.013c0.158,0,0.317,0,0.476,0
		c0.256,0.022,0.513,0,0.769,0.012c0.083,0.02,0.168,0.008,0.252,0.008c0.558,0.002,1.115,0.002,1.673,0.002
		c0.037,0.023,0.083-0.004,0.12,0.02c0.174,0.054,0.35,0.1,0.515,0.18c0.52,0.252,0.824,0.664,0.923,1.231
		c0.011,0.063,0.019,0.128,0.027,0.192C32.467,12.729,32.466,12.837,32.453,12.945z"/>
	<path fill-rule="evenodd" clip-rule="evenodd" fill="#17355D" d="M10.37,15.659c-0.174,0.41-0.248,0.848-0.365,1.274
		c-0.004,0.015,0,0.031,0.001,0.046c-0.021,0.055-0.013,0.118-0.055,0.165c-0.021,0.036-0.02,0.074-0.015,0.112
		c-0.021,0.081-0.037,0.163-0.078,0.236c-0.025,0.119-0.083,0.213-0.2,0.263c-0.246,0.015-0.492,0.002-0.738,0.007
		c-0.042,0.001-0.084-0.01-0.125,0.01c-0.036,0-0.071,0-0.107,0c-0.124-0.028-0.25,0.007-0.375-0.019
		c-0.018-0.017-0.036-0.033-0.054-0.049c-0.044-0.041-0.05-0.098-0.06-0.151c0.006-0.051,0.012-0.101,0.019-0.151
		c0.001-0.039,0.015-0.076,0.022-0.115c0.055-0.172,0.083-0.35,0.123-0.524c0.045-0.199,0.1-0.396,0.134-0.598
		c0.009-0.052,0.054-0.096,0.03-0.152c-0.004-0.022,0.001-0.042,0.018-0.059c0.02-0.048,0.035-0.099,0.041-0.151
		c0.046-0.172,0.079-0.347,0.121-0.52c0.05-0.207,0.095-0.415,0.14-0.623c0.008-0.036,0.046-0.064,0.025-0.105
		c0.012-0.057,0.03-0.111,0.04-0.168c0.071-0.311,0.142-0.621,0.211-0.932c0.003-0.014,0-0.029-0.001-0.044
		c-0.007-0.034,0.01-0.063,0.022-0.092c0.052-0.079,0.045-0.175,0.073-0.261c0.021-0.05,0.03-0.104,0.044-0.157
		c0.047-0.21,0.095-0.421,0.142-0.631c0.021-0.051,0.031-0.104,0.042-0.158c0.031-0.044-0.015-0.103,0.027-0.145
		c0.021-0.05,0.03-0.104,0.044-0.157c0.021-0.183,0.084-0.356,0.118-0.536c0.017-0.028,0.024-0.061,0.041-0.09
		c0.01-0.018,0.02-0.036,0.029-0.054c0.038-0.037,0.065-0.084,0.117-0.105c0.023-0.009,0.046-0.019,0.068-0.028
		c0.048-0.02,0.099-0.009,0.148-0.009c0.453,0.003,0.906-0.009,1.359,0.006c0.485,0.003,0.97,0.015,1.456,0.007
		c0.301-0.005,0.593,0.032,0.881,0.116c0.036,0.009,0.072,0.018,0.1,0.044c0.012,0.036,0.042,0.022,0.066,0.023
		c0.047,0.007,0.078,0.044,0.119,0.063c0.014,0.022,0.032,0.037,0.06,0.032c0.043,0.011,0.072,0.043,0.101,0.074
		c0.039,0.029,0.077,0.058,0.116,0.086c0.034,0.021,0.066,0.044,0.093,0.074l-0.003-0.002c0.035,0.036,0.072,0.071,0.098,0.115
		c0.029,0.039,0.058,0.077,0.087,0.116c0.03,0.03,0.062,0.058,0.073,0.101c-0.005,0.037,0.006,0.065,0.038,0.085
		c0.035,0.024,0.038,0.067,0.056,0.101c-0.009,0.05,0.016,0.09,0.038,0.132c0.042,0.019,0.015,0.063,0.034,0.09
		c0.013,0.086,0.011,0.174,0.048,0.255c0.019,0.185,0.013,0.371,0.003,0.556c-0.001,0.008-0.003,0.016-0.004,0.024
		c-0.029,0.043,0,0.094-0.019,0.138c-0.019,0.066-0.039,0.133-0.03,0.204c-0.02,0.055-0.012,0.119-0.055,0.166
		c-0.011,0.047-0.023,0.095-0.034,0.142c0.016,0.031-0.006,0.049-0.023,0.069c-0.054,0.085-0.084,0.181-0.119,0.274
		c-0.015,0.033-0.017,0.072-0.049,0.096c-0.031,0.02-0.045,0.049-0.045,0.085c-0.013,0.042-0.044,0.07-0.074,0.1
		c-0.028,0.042-0.057,0.084-0.086,0.126c-0.019,0.033-0.031,0.072-0.075,0.083c-0.127,0.124-0.249,0.254-0.392,0.361
		c-0.026,0.046-0.08,0.053-0.119,0.08c-0.044,0.031-0.089,0.063-0.134,0.094c-0.027,0.026-0.064,0.032-0.097,0.046
		c-0.084,0.041-0.168,0.081-0.251,0.122c-0.032,0.018-0.065,0.032-0.101,0.04c-0.037-0.012-0.059,0.015-0.085,0.031
		c-0.042,0.008-0.081,0.028-0.122,0.039c-0.063,0.006-0.124,0.019-0.18,0.051c-0.058,0.013-0.113,0.03-0.171,0.041
		c-0.063-0.014-0.12,0.009-0.177,0.03c-0.036,0.02-0.08-0.008-0.115,0.019l0,0c-0.044,0.028-0.098-0.005-0.143,0.022
		c-0.138,0.01-0.276,0.019-0.415,0.028c-0.231,0.013-0.463,0.011-0.695,0.001c-0.105-0.012-0.21-0.024-0.315-0.007
		c-0.053-0.015-0.106-0.015-0.159,0c-0.05-0.02-0.092-0.001-0.13,0.029C10.413,15.605,10.399,15.642,10.37,15.659z"/>
	<path fill-rule="evenodd" clip-rule="evenodd" fill="#17355D" d="M24.513,12.9c0.05-0.052,0.083-0.118,0.116-0.177
		c0.05-0.091,0.119-0.129,0.21-0.15c0.04-0.021,0.086,0,0.127-0.019c0.02-0.002,0.04-0.005,0.059-0.008
		c0.348-0.01,0.695-0.011,1.043,0c0.09,0.015,0.183,0.025,0.25,0.099c0.021,0.039,0.034,0.077-0.006,0.112
		c-0.048,0.081-0.105,0.156-0.131,0.248c-0.024,0.054-0.059,0.102-0.096,0.147c-0.19,0.313-0.38,0.625-0.569,0.938
		c-0.075,0.125-0.144,0.254-0.216,0.381c-0.022,0.029-0.021,0.072-0.055,0.095c-0.02,0.051-0.075,0.082-0.083,0.14
		c-0.046,0.058-0.055,0.139-0.117,0.188c-0.071,0.101-0.135,0.206-0.187,0.318c-0.02,0.055-0.057,0.099-0.088,0.146
		c-0.037,0.029-0.05,0.074-0.073,0.113c-0.013,0.046-0.039,0.084-0.072,0.119c-0.029,0.021-0.045,0.05-0.046,0.086
		c-0.009,0.041-0.049,0.062-0.063,0.1c-0.008,0.002-0.01,0.007-0.007,0.015c-0.008,0.042-0.049,0.063-0.063,0.101
		c-0.104,0.133-0.187,0.281-0.262,0.432c-0.008,0.043-0.05,0.064-0.064,0.103L24.12,16.43c-0.023,0.026-0.019,0.07-0.055,0.088
		c-0.068,0.063-0.093,0.149-0.135,0.227c-0.008,0.041-0.049,0.063-0.063,0.101l-0.007,0.004l0,0.009
		c-0.009,0.044-0.045,0.069-0.07,0.103c-0.044,0.064-0.098,0.123-0.115,0.202c-0.009,0.041-0.05,0.062-0.063,0.1
		c-0.008,0.002-0.01,0.007-0.008,0.015c-0.006,0.043-0.049,0.063-0.062,0.102c-0.046,0.045-0.08,0.098-0.1,0.158
		c-0.026,0.052-0.054,0.102-0.094,0.144c-0.041,0.027-0.039,0.079-0.067,0.113c-0.015,0.046-0.036,0.089-0.078,0.117
		c-0.085,0.155-0.204,0.292-0.272,0.457c-0.006,0.043-0.05,0.063-0.062,0.102c-0.043,0.026-0.052,0.076-0.075,0.116
		c-0.018,0.044-0.037,0.086-0.079,0.114c-0.017,0.008-0.018,0.023-0.017,0.039c-0.025,0.053-0.058,0.103-0.097,0.146
		c-0.083,0.118-0.161,0.239-0.228,0.366c-0.019,0.036-0.029,0.079-0.07,0.1c-0.044,0.069-0.089,0.14-0.134,0.21
		c0.015,0.043-0.027,0.049-0.046,0.069c-0.032,0.052-0.064,0.104-0.097,0.155c-0.008,0.036-0.038,0.054-0.062,0.077
		c-0.018,0.021-0.036,0.043-0.054,0.064c-0.021,0.044-0.052,0.078-0.098,0.096c-0.029-0.008-0.041,0.022-0.063,0.029
		c-0.069,0.011-0.139,0.012-0.208,0c-0.168-0.021-0.337-0.011-0.505-0.006c-0.082-0.017-0.163-0.017-0.244,0
		c-0.081,0-0.162,0-0.243,0c-0.062-0.025-0.128,0.003-0.191-0.018c-0.011-0.002-0.023-0.004-0.035-0.007
		c-0.042-0.017-0.04-0.062-0.058-0.093c0-0.014,0-0.027,0-0.04c0.026-0.036-0.005-0.084,0.023-0.119l0,0.001
		c0.022-0.061,0.062-0.109,0.093-0.163l0,0c0.012-0.045,0.042-0.079,0.068-0.117c0.062-0.095,0.125-0.189,0.187-0.284
		c0.017-0.04,0.045-0.072,0.066-0.109c0.009-0.016,0.018-0.031,0.027-0.047c0.021-0.033,0.051-0.058,0.067-0.094l0.002-0.002
		c0.017-0.041,0.044-0.075,0.068-0.113c0.033-0.05,0.066-0.101,0.099-0.15c0.006-0.045,0.047-0.067,0.065-0.104
		c0.119-0.182,0.23-0.366,0.325-0.561c0.023-0.086,0.021-0.169-0.023-0.248c-0.033-0.191-0.094-0.377-0.112-0.572
		c-0.008-0.091-0.042-0.18-0.059-0.27c-0.029-0.153-0.055-0.308-0.082-0.462c-0.031-0.035,0.002-0.084-0.024-0.12
		c-0.017-0.092-0.034-0.184-0.051-0.274c-0.012-0.072-0.029-0.143-0.041-0.215c-0.032-0.181-0.052-0.366-0.1-0.542
		c-0.049-0.183-0.055-0.373-0.105-0.555c-0.011-0.04-0.043-0.08-0.03-0.126c-0.012-0.021-0.042-0.038-0.016-0.067
		c0.023-0.123-0.052-0.231-0.052-0.35c-0.027-0.037,0.003-0.083-0.022-0.12c-0.016-0.091-0.031-0.183-0.046-0.274
		c-0.03-0.035,0.003-0.083-0.024-0.119c-0.008-0.061-0.017-0.122-0.024-0.183c-0.026-0.032,0.006-0.077-0.023-0.108
		c-0.047-0.099-0.028-0.207-0.047-0.31c-0.024-0.037,0.004-0.083-0.021-0.121c0.004-0.008,0.003-0.014-0.004-0.019
		c-0.012-0.062-0.018-0.124,0.003-0.186c0.008-0.021,0.017-0.042,0.025-0.063c0.014-0.04,0.047-0.065,0.068-0.099
		c0.031-0.017,0.062-0.033,0.092-0.049c0.087-0.024,0.178,0.006,0.265-0.018c0.067,0.018,0.133-0.003,0.199-0.006
		c0.224-0.012,0.448-0.015,0.672,0.001c0.238,0.077,0.33,0.259,0.353,0.49c0.02,0.035-0.009,0.08,0.02,0.113l0.001,0.001
		c0.023,0.037-0.005,0.082,0.021,0.118v0c0.028,0.036-0.002,0.083,0.022,0.121c-0.009,0.07,0.003,0.138,0.026,0.204
		c0.024,0.037-0.003,0.082,0.02,0.119l-0.001-0.002c0.033,0.035,0,0.083,0.024,0.119l-0.001-0.003
		c0.038,0.042-0.003,0.099,0.026,0.142c-0.002,0.07-0.018,0.142,0.028,0.206c0.02,0.036-0.008,0.08,0.02,0.115l0,0
		c0.025,0.037-0.004,0.083,0.021,0.119c-0.013,0.072,0.012,0.139,0.028,0.207c0.021,0.036-0.008,0.08,0.02,0.115
		c0.016,0.141,0.03,0.282,0.07,0.418c0.027,0.035-0.005,0.082,0.023,0.116v0c0.027,0.036-0.003,0.083,0.022,0.119
		c-0.001,0.11,0.03,0.216,0.049,0.323c0.005,0.033,0.027,0.062,0.066,0.07c0.091,0.035,0.12-0.038,0.159-0.093
		c0.056-0.095,0.112-0.191,0.168-0.286c0.018-0.04,0.044-0.073,0.068-0.109c0.008-0.017,0.017-0.033,0.025-0.05
		c0.026-0.026,0.035-0.066,0.064-0.09c0.017-0.032,0.021-0.07,0.052-0.094c0.041-0.059,0.068-0.127,0.112-0.184
		c0.033-0.052,0.066-0.104,0.1-0.156c0.009-0.041,0.049-0.062,0.063-0.1c0.007-0.002,0.009-0.006,0.007-0.013
		c0.005-0.043,0.05-0.063,0.061-0.103c0.033-0.055,0.065-0.11,0.098-0.165c0.031-0.045,0.058-0.093,0.091-0.137
		c0.056-0.089,0.112-0.179,0.167-0.268c0.005-0.043,0.05-0.063,0.061-0.103c0.033-0.055,0.065-0.11,0.098-0.165
		c0.026-0.027,0.035-0.066,0.063-0.091c0.127-0.201,0.254-0.401,0.381-0.602C24.478,12.943,24.499,12.923,24.513,12.9z"/>
	<path fill-rule="evenodd" clip-rule="evenodd" fill="#296293" d="M33.217,17.916c-0.229-0.005-0.458-0.034-0.668-0.126
		c-0.24-0.105-0.434-0.271-0.557-0.511c-0.082-0.159-0.111-0.33-0.127-0.505c-0.016-0.04,0.003-0.084-0.016-0.123
		c0.01-0.026,0.009-0.052-0.001-0.077c0.022-0.047-0.003-0.1,0.019-0.146c0.016-0.305,0.095-0.591,0.264-0.847
		c0.237-0.358,0.582-0.568,0.98-0.705c0.534-0.184,1.088-0.183,1.641-0.196c0.281-0.006,0.563-0.003,0.844-0.036
		c0.067-0.007,0.106-0.041,0.134-0.095c0.078-0.156,0.105-0.323,0.076-0.494c-0.033-0.189-0.149-0.305-0.339-0.351
		c-0.332-0.079-0.667-0.062-1.001-0.033c-0.272,0.024-0.545,0.053-0.812,0.115c-0.12,0.028-0.24,0.051-0.352,0.108
		c-0.03,0.016-0.063,0.027-0.097,0.036c-0.123,0.031-0.22-0.042-0.222-0.166c-0.001-0.093,0.001-0.186,0.002-0.278
		c0.022-0.046-0.004-0.099,0.018-0.146c0.037-0.13,0.03-0.271,0.084-0.397c0.059-0.14,0.162-0.222,0.317-0.245
		c0.154-0.022,0.308-0.054,0.461-0.082c0.039-0.019,0.084,0.003,0.123-0.018c0.013-0.001,0.026-0.002,0.039-0.004
		c0.048-0.023,0.101,0.003,0.148-0.019c0.414-0.03,0.829-0.066,1.244-0.039c0.429,0.027,0.854,0.078,1.231,0.311
		c0.309,0.191,0.569,0.428,0.675,0.792c0.024,0.084,0.034,0.172,0.05,0.258c0.006,0.061,0.009,0.122-0.002,0.182
		c-0.002,0.053-0.005,0.105-0.007,0.157c-0.022,0.039,0.002,0.083-0.02,0.122c-0.095,0.455-0.187,0.911-0.285,1.366
		c-0.129,0.589-0.243,1.182-0.391,1.767c-0.041,0.163-0.18,0.271-0.349,0.271c-0.031,0-0.062,0.006-0.092,0.009
		c-0.332,0.017-0.665,0.017-0.997,0.001c-0.066-0.015-0.066-0.066-0.063-0.117c0.005-0.107,0.013-0.214,0.021-0.321
		c0.007-0.081-0.022-0.097-0.093-0.06c-0.187,0.099-0.377,0.19-0.559,0.296c-0.212,0.123-0.429,0.236-0.663,0.304
		c-0.137,0.039-0.288,0.03-0.434,0.044C33.368,17.924,33.292,17.931,33.217,17.916z"/>
	<path fill-rule="evenodd" clip-rule="evenodd" fill="#17355D" d="M17.853,13.69c-0.09-0.001-0.174-0.061-0.268-0.026
		c-0.124-0.016-0.247-0.016-0.371,0c-0.082-0.016-0.164-0.012-0.245,0.005c-0.064,0.022-0.133-0.005-0.197,0.018l-0.007-0.003
		l-0.004,0.005c-0.053,0.029-0.114-0.006-0.167,0.021l-0.011-0.002l-0.009,0.005c-0.039,0.021-0.083-0.003-0.122,0.019
		c-0.183-0.002-0.355,0.053-0.529,0.098c-0.041,0.013-0.081,0.029-0.122,0.041c-0.037,0.02-0.081,0.021-0.111,0.055
		c-0.046,0.005-0.092,0.012-0.138-0.004c-0.124-0.063-0.148-0.117-0.115-0.251c0.005-0.021,0-0.046,0-0.069
		c0.023-0.054-0.003-0.114,0.018-0.169c0.008-0.005,0.009-0.011,0.005-0.019c0.022-0.038,0-0.082,0.017-0.12
		c0.033-0.095-0.003-0.203,0.054-0.294c0.008-0.036,0.021-0.07,0.041-0.101c0.103-0.161,0.268-0.203,0.441-0.225
		c0.063-0.008,0.13,0,0.189-0.033c0.037-0.021,0.081,0.005,0.118-0.019l-0.001,0.001c0.044-0.032,0.1,0.002,0.146-0.023
		c0.115,0.007,0.228-0.016,0.342-0.029c0.048-0.019,0.101,0.003,0.149-0.017c0.029,0.013,0.056,0.001,0.083-0.007
		c0.132-0.021,0.267,0.01,0.399-0.017c0.105,0,0.21,0,0.314,0c0.093,0.027,0.189-0.004,0.282,0.017
		c0.02,0.008,0.04,0.018,0.062,0.007c0.04,0.019,0.084,0,0.124,0.016c0.191,0.042,0.382,0.083,0.574,0.124
		c0.036,0.008,0.069,0.022,0.101,0.041l0.003,0.002c0.068,0.019,0.132,0.044,0.181,0.099c0.209,0.132,0.396,0.291,0.551,0.485
		c0.031,0.029,0.063,0.057,0.074,0.101c-0.001,0.023-0.007,0.047,0.021,0.061c0.034,0.024,0.038,0.064,0.049,0.1
		c0.028,0.064,0.008,0.141,0.052,0.201c0.014,0.146,0.018,0.293-0.002,0.44c-0.039,0.185-0.079,0.37-0.116,0.555
		c-0.049,0.242-0.094,0.485-0.147,0.727c-0.013,0.057-0.02,0.112-0.018,0.17c-0.016,0.089-0.045,0.176-0.063,0.265
		c-0.086,0.376-0.182,0.75-0.254,1.128c-0.031,0.164-0.104,0.319-0.1,0.49c-0.017,0.04-0.042,0.073-0.079,0.098
		c-0.053,0.042-0.108,0.08-0.174,0.098c-0.045,0.021-0.098-0.006-0.143,0.019c-0.053,0.001-0.106,0.003-0.159,0.004
		c-0.294,0.014-0.587,0.018-0.881-0.002c-0.016-0.016-0.032-0.031-0.048-0.047c-0.017-0.046-0.012-0.092-0.003-0.139
		c0.014-0.073,0.021-0.146,0.007-0.221c0.018-0.121,0.018-0.121-0.083-0.085c-0.02,0.011-0.039,0.021-0.059,0.032
		c-0.041,0.019-0.072,0.056-0.12,0.063c-0.014,0.01-0.028,0.02-0.042,0.03c-0.026,0.007-0.043,0.031-0.071,0.037
		c-0.122,0.053-0.232,0.129-0.35,0.191c-0.242,0.128-0.482,0.248-0.765,0.247c-0.015,0-0.03,0.007-0.045,0.011
		c-0.057,0.019-0.118-0.005-0.174,0.017c-0.093-0.011-0.185-0.01-0.277,0c-0.048-0.02-0.101-0.002-0.15-0.015
		c-0.075-0.011-0.15-0.021-0.225-0.032c-0.05-0.009-0.098-0.024-0.146-0.038c-0.048-0.018-0.096-0.034-0.144-0.052
		c-0.027-0.02-0.063-0.022-0.088-0.046c-0.016-0.008-0.032-0.016-0.048-0.023c-0.036-0.031-0.078-0.056-0.115-0.086
		c-0.032-0.025-0.064-0.052-0.097-0.077c-0.024-0.021-0.053-0.039-0.063-0.073l0.001,0.002c-0.026-0.028-0.051-0.06-0.073-0.092
		c-0.07-0.116-0.116-0.244-0.165-0.371c-0.03-0.036-0.007-0.081-0.019-0.12c0.002-0.142,0.007-0.284,0.007-0.426
		c0-0.177,0.025-0.348,0.087-0.513c0.009-0.053,0.04-0.098,0.06-0.147c0.041-0.078,0.082-0.156,0.123-0.234
		c0.024-0.03,0.047-0.062,0.073-0.09l-0.001,0.001c0.013-0.03,0.037-0.051,0.061-0.073c0.01-0.01,0.02-0.02,0.03-0.03
		c0.046-0.062,0.101-0.113,0.166-0.153l-0.002,0.001c0.03-0.026,0.059-0.055,0.096-0.072c0.095-0.083,0.216-0.118,0.32-0.185
		c0.038-0.02,0.077-0.034,0.117-0.047c0.023-0.009,0.046-0.017,0.069-0.026c0.041-0.017,0.083-0.033,0.127-0.043
		c0.187-0.053,0.374-0.107,0.569-0.122c0.047-0.021,0.1,0.004,0.147-0.018c0.03,0.012,0.058,0.001,0.085-0.007
		c0.119-0.021,0.241,0.009,0.359-0.017c0.035-0.001,0.07-0.002,0.104-0.004c0.165-0.021,0.331-0.003,0.497-0.009
		c0.046-0.002,0.093,0.009,0.138-0.009c0.168,0.009,0.337,0.002,0.505-0.015c0.058-0.006,0.083-0.046,0.114-0.083
		c0.028-0.023,0.03-0.061,0.046-0.09c0.021-0.075,0.014-0.155,0.048-0.227c0.015-0.049,0.018-0.098-0.001-0.146
		c-0.001-0.007-0.002-0.015-0.004-0.022c-0.013-0.029-0.005-0.063-0.019-0.093c-0.008-0.023-0.017-0.046-0.025-0.069
		c-0.018-0.036-0.055-0.059-0.066-0.099c-0.008-0.007-0.017-0.014-0.024-0.02c-0.028-0.008-0.047-0.029-0.071-0.043
		c-0.014-0.008-0.028-0.017-0.042-0.024C17.963,13.719,17.908,13.706,17.853,13.69z"/>
	<path fill-rule="evenodd" clip-rule="evenodd" fill="#296293" d="M40.453,11.035c0.196,0.119,0.218,0.191,0.165,0.408
		c-0.136,0.557-0.264,1.115-0.397,1.672c-0.127,0.535-0.259,1.068-0.386,1.604c-0.151,0.635-0.3,1.271-0.45,1.908
		c-0.069,0.293-0.141,0.586-0.215,0.878c-0.008,0.03-0.012,0.06-0.015,0.089c-0.015,0.119-0.08,0.173-0.2,0.172
		c-0.116,0-0.231,0.003-0.347,0.005c-0.078-0.022-0.159,0.001-0.238-0.014c-0.149-0.004-0.299-0.016-0.447-0.011
		c-0.3,0.01-0.309-0.04-0.296-0.292c0.023-0.038-0.004-0.084,0.021-0.122c0.079-0.414,0.144-0.832,0.241-1.242
		c0.05-0.205,0.099-0.412,0.143-0.617c0.061-0.287,0.124-0.575,0.185-0.863c0.037-0.179,0.084-0.36,0.124-0.54
		c0.067-0.298,0.143-0.596,0.199-0.897c0.036-0.191,0.092-0.382,0.138-0.573c0.092-0.376,0.183-0.753,0.269-1.131
		c0.015-0.062,0.02-0.125,0.042-0.187c0.068-0.188,0.155-0.251,0.36-0.254c0.188-0.002,0.378-0.004,0.567-0.007
		C40.094,11.046,40.274,11.021,40.453,11.035z"/>
	<path fill-rule="evenodd" clip-rule="evenodd" fill="#19365E" d="M41.688,11.021c0.157,0.008,0.176,0.018,0.221,0.206
		c0.031,0.129,0.092,0.247,0.122,0.375c0.03,0.02,0.036-0.008,0.048-0.025c0.017-0.056,0.033-0.111,0.05-0.167
		c0.022-0.034,0.026-0.077,0.046-0.112c0.016-0.046,0.031-0.093,0.047-0.14c0.016-0.029,0.024-0.062,0.04-0.091
		c0.039-0.078,0.113-0.026,0.168-0.046c0.024,0.029,0.002,0.069,0.021,0.1c-0.009,0.036-0.013,0.072,0.001,0.107
		c0.032,0.094-0.006,0.194,0.022,0.289l-0.003,0.008l0.006,0.005c0.029,0.101-0.009,0.206,0.021,0.306
		c-0.004,0.005-0.005,0.011-0.002,0.017c-0.044,0.02-0.088,0.02-0.132,0c-0.002-0.015-0.004-0.03-0.006-0.045
		c-0.024-0.088,0.008-0.179-0.02-0.267c0.007-0.066,0.01-0.132-0.005-0.197c-0.016-0.025-0.033-0.012-0.051-0.003
		c-0.014,0.045-0.027,0.09-0.041,0.135c-0.017,0.041-0.018,0.088-0.052,0.121c-0.017,0.044-0.049,0.083-0.041,0.135
		c-0.015,0.041-0.024,0.084-0.046,0.122l0.001-0.001c-0.037,0.024-0.076,0.014-0.114,0.007c-0.045-0.123-0.102-0.243-0.131-0.37
		c-0.014-0.063-0.05-0.112-0.062-0.176c-0.034,0.029-0.022,0.06-0.02,0.089c-0.022,0.064,0.001,0.131-0.016,0.196
		c-0.003,0.085-0.006,0.169-0.01,0.254c-0.047,0.006-0.101,0.047-0.136-0.021c0.001-0.028,0.002-0.057,0.003-0.085
		c0.025-0.078-0.005-0.161,0.018-0.239c0.006-0.006,0.008-0.014,0.004-0.022c0.03-0.083-0.007-0.173,0.021-0.257
		c0.016-0.028,0.011-0.058,0.003-0.087C41.689,11.105,41.66,11.058,41.688,11.021z"/>
	<path fill-rule="evenodd" clip-rule="evenodd" fill="#1C3860" d="M40.899,11.024c0.208-0.001,0.416-0.002,0.624-0.003
		c0.031,0.075,0.008,0.103-0.074,0.104c-0.169,0.001-0.169,0.004-0.169,0.172c0,0.162-0.002,0.324,0.001,0.486
		c0,0.055-0.009,0.086-0.075,0.084c-0.063-0.001-0.065-0.036-0.064-0.083c0-0.189-0.004-0.378,0.002-0.567
		c0.003-0.08-0.025-0.105-0.099-0.095c-0.027,0.003-0.055-0.001-0.081,0C40.883,11.129,40.871,11.089,40.899,11.024z"/>
	<path fill-rule="evenodd" clip-rule="evenodd" fill="#FDFDFD" d="M40.899,11.024c-0.021,0.083,0.023,0.094,0.093,0.093
		c0.158,0,0.158,0.002,0.158,0.155c0,0.154-0.003,0.309,0.002,0.463c0.002,0.045-0.044,0.125,0.063,0.124
		c0.1-0.002,0.056-0.076,0.057-0.118c0.005-0.162,0.011-0.324-0.001-0.485c-0.008-0.118,0.027-0.158,0.143-0.142
		c0.063,0.009,0.143,0.019,0.109-0.093c0.046,0.069,0.041,0.11-0.055,0.115c-0.177,0.009-0.177,0.011-0.177,0.193
		c0,0.155-0.001,0.309,0.001,0.464c0,0.056-0.013,0.086-0.077,0.086c-0.065,0.001-0.089-0.022-0.087-0.088
		c0.003-0.166,0.001-0.332,0.001-0.499c-0.001-0.173,0.011-0.163-0.155-0.156c-0.093,0.004-0.116-0.035-0.095-0.117
		c0.001-0.001,0.007-0.003,0.01-0.002C40.894,11.019,40.896,11.022,40.899,11.024z"/>
	<path fill-rule="evenodd" clip-rule="evenodd" fill="#FDFDFD" d="M11.4,10.992c-0.502,0.001-1.005,0.002-1.508,0.003
		c0.023-0.028,0.056-0.021,0.086-0.021c0.448,0,0.897,0,1.345,0C11.351,10.973,11.378,10.97,11.4,10.992z"/>
	<path fill-rule="evenodd" clip-rule="evenodd" fill="#FDFDFD" d="M26.067,12.547c-0.348,0-0.695,0-1.043,0
		c0.029-0.027,0.065-0.018,0.099-0.018c0.281-0.001,0.563-0.001,0.844,0C26.002,12.529,26.038,12.519,26.067,12.547z"/>
	<path fill-rule="evenodd" clip-rule="evenodd" fill="#FDFDFD" d="M35.235,17.775c0.332,0,0.665-0.001,0.997-0.001
		c-0.01,0.007-0.019,0.019-0.028,0.019c-0.313,0.001-0.627,0.001-0.94,0C35.254,17.793,35.245,17.781,35.235,17.775z"/>
	<path fill-rule="evenodd" clip-rule="evenodd" fill="#FDFDFD" d="M17.69,17.773c0.294,0.001,0.587,0.001,0.881,0.002
		c-0.027,0.03-0.063,0.021-0.097,0.021c-0.229,0.001-0.458,0.001-0.688,0C17.753,17.796,17.716,17.806,17.69,17.773z"/>
	<path fill-rule="evenodd" clip-rule="evenodd" fill="#FDFDFD" d="M8.796,17.771c0.121-0.032,0.244-0.011,0.366-0.015
		c0.166-0.004,0.331-0.002,0.497-0.002c-0.064,0.038-0.136,0.017-0.203,0.018C9.236,17.774,9.017,17.772,8.796,17.771z"/>
	<path fill-rule="evenodd" clip-rule="evenodd" fill="#FDFDFD" d="M28.942,10.988c-0.257-0.006-0.513,0.014-0.769-0.012
		C28.43,10.979,28.687,10.957,28.942,10.988z"/>
	<path fill-rule="evenodd" clip-rule="evenodd" fill="#FDFDFD" d="M11.053,15.574c0.231,0,0.463-0.001,0.695-0.001
		c-0.112,0.042-0.228,0.017-0.341,0.018C11.289,15.59,11.169,15.613,11.053,15.574z"/>
	<path fill-rule="evenodd" clip-rule="evenodd" fill="#FDFDFD" d="M21.774,12.549c-0.224,0-0.448,0-0.672-0.001
		c0.187-0.044,0.375-0.009,0.563-0.019C21.701,12.527,21.743,12.516,21.774,12.549z"/>
	<path fill-rule="evenodd" clip-rule="evenodd" fill="#FFFFFF" d="M17.559,14.666c-0.21,0.035-0.423,0.017-0.634,0.019
		c0.098-0.047,0.202-0.015,0.303-0.02C17.337,14.659,17.448,14.665,17.559,14.666z"/>
	<path fill-rule="evenodd" clip-rule="evenodd" fill="#FDFDFD" d="M14.863,13.062c-0.001-0.186-0.002-0.371-0.003-0.556
		C14.897,12.69,14.893,12.876,14.863,13.062z"/>
	<path fill-rule="evenodd" clip-rule="evenodd" fill="#FDFDFD" d="M40.453,11.035c-0.179-0.003-0.359,0.01-0.538-0.013
		C40.095,11.026,40.274,11.002,40.453,11.035z"/>
	<path fill-rule="evenodd" clip-rule="evenodd" fill="#FDFDFD" d="M19.825,14.223c0-0.147,0.001-0.294,0.002-0.44
		C19.86,13.929,19.865,14.076,19.825,14.223z"/>
	<path fill-rule="evenodd" clip-rule="evenodd" fill="#FDFDFD" d="M17.44,12.53c-0.132,0.024-0.266,0.018-0.399,0.017
		C17.173,12.507,17.307,12.536,17.44,12.53z"/>
	<path fill-rule="evenodd" clip-rule="evenodd" fill="#FDFDFD" d="M8.314,17.753c0.125,0.013,0.251-0.014,0.375,0.019
		C8.564,17.764,8.438,17.796,8.314,17.753z"/>
	<path fill-rule="evenodd" clip-rule="evenodd" fill="#FFFFFF" d="M16.82,14.688c-0.119,0.025-0.239,0.018-0.359,0.017
		C16.579,14.664,16.7,14.696,16.82,14.688z"/>
	<path fill-rule="evenodd" clip-rule="evenodd" fill="#FDFDFD" d="M14.932,15.223c-0.056,0.051-0.111,0.102-0.166,0.153
		C14.778,15.278,14.856,15.252,14.932,15.223z"/>
	<path fill-rule="evenodd" clip-rule="evenodd" fill="#FFFFFF" d="M17.214,13.664c0.124-0.023,0.247-0.022,0.371,0
		C17.461,13.664,17.338,13.664,17.214,13.664z"/>
	<path fill-rule="evenodd" clip-rule="evenodd" fill="#FDFDFD" d="M32.453,12.945c0-0.108,0-0.216-0.001-0.324
		C32.486,12.729,32.484,12.837,32.453,12.945z"/>
	<path fill-rule="evenodd" clip-rule="evenodd" fill="#FDFDFD" d="M42.497,11.837c-0.033-0.1-0.018-0.204-0.021-0.306
		C42.524,11.63,42.488,11.735,42.497,11.837z"/>
	<path fill-rule="evenodd" clip-rule="evenodd" fill="#FDFDFD" d="M19.48,15.939c0.006-0.092,0.025-0.181,0.063-0.265
		C19.549,15.769,19.522,15.856,19.48,15.939z"/>
	<path fill-rule="evenodd" clip-rule="evenodd" fill="#FDFDFD" d="M42.474,11.517c-0.025-0.095-0.014-0.192-0.022-0.289
		C42.504,11.321,42.465,11.421,42.474,11.517z"/>
	<path fill-rule="evenodd" clip-rule="evenodd" fill="#FDFDFD" d="M23.279,14.873c-0.02,0.072-0.063,0.13-0.112,0.184
		C23.186,14.984,23.212,14.917,23.279,14.873z"/>
	<path fill-rule="evenodd" clip-rule="evenodd" fill="#FDFDFD" d="M18.037,12.547c-0.094,0-0.189,0.011-0.282-0.017
		C17.849,12.536,17.945,12.509,18.037,12.547z"/>
	<path fill-rule="evenodd" clip-rule="evenodd" fill="#FDFDFD" d="M25.045,14.895c0.039-0.063,0.078-0.125,0.117-0.188
		C25.136,14.778,25.131,14.862,25.045,14.895z"/>
	<path fill-rule="evenodd" clip-rule="evenodd" fill="#FDFDFD" d="M9.859,17.492c0.026-0.078,0.052-0.157,0.078-0.236
		C9.938,17.344,9.921,17.426,9.859,17.492z"/>
	<path fill-rule="evenodd" clip-rule="evenodd" fill="#FDFDFD" d="M21.333,17.777c0.06,0.078,0.056,0.161,0.023,0.248
		C21.363,17.941,21.351,17.859,21.333,17.777z"/>
	<path fill-rule="evenodd" clip-rule="evenodd" fill="#FDFDFD" d="M41.662,11.229c-0.006,0.086,0.006,0.173-0.021,0.257
		C41.651,11.4,41.615,11.312,41.662,11.229z"/>
	<path fill-rule="evenodd" clip-rule="evenodd" fill="#FDFDFD" d="M19.081,12.835c-0.061-0.033-0.121-0.066-0.181-0.099
		C18.979,12.736,19.046,12.755,19.081,12.835z"/>
	<path fill-rule="evenodd" clip-rule="evenodd" fill="#FDFDFD" d="M22.79,15.686c-0.024,0.08-0.06,0.141-0.159,0.093
		C22.708,15.79,22.737,15.717,22.79,15.686z"/>
	<path fill-rule="evenodd" clip-rule="evenodd" fill="#FDFDFD" d="M20.902,12.554c-0.086,0.032-0.177,0.007-0.265,0.018
		C20.724,12.53,20.814,12.559,20.902,12.554z"/>
	<path fill-rule="evenodd" clip-rule="evenodd" fill="#FDFDFD" d="M42.338,11.542c0.014,0.088,0.031,0.176,0.02,0.267
		C42.314,11.722,42.345,11.631,42.338,11.542z"/>
	<path fill-rule="evenodd" clip-rule="evenodd" fill="#FDFDFD" d="M38.37,17.757c0.08,0.001,0.16-0.019,0.238,0.014
		C38.528,17.769,38.448,17.789,38.37,17.757z"/>
	<path fill-rule="evenodd" clip-rule="evenodd" fill="#FDFDFD" d="M20.964,15.864c0.033,0.067,0.044,0.14,0.041,0.215
		C20.972,16.011,20.957,15.939,20.964,15.864z"/>
	<path fill-rule="evenodd" clip-rule="evenodd" fill="#FDFDFD" d="M9.824,11.023c-0.039,0.035-0.078,0.07-0.117,0.105
		C9.73,11.077,9.748,11.018,9.824,11.023z"/>
	<path fill-rule="evenodd" clip-rule="evenodd" fill="#FDFDFD" d="M41.637,11.508c0.002,0.08,0.014,0.161-0.018,0.239
		C41.625,11.667,41.595,11.584,41.637,11.508z"/>
	<path fill-rule="evenodd" clip-rule="evenodd" fill="#FDFDFD" d="M20.793,20.046c0.082-0.019,0.163-0.022,0.244,0
		C20.956,20.046,20.875,20.046,20.793,20.046z"/>
	<path fill-rule="evenodd" clip-rule="evenodd" fill="#FDFDFD" d="M20.383,19.607c-0.016,0.063-0.059,0.11-0.093,0.163
		C20.289,19.697,20.331,19.649,20.383,19.607z"/>
	<path fill-rule="evenodd" clip-rule="evenodd" fill="#FDFDFD" d="M33.217,17.916c0.076,0.002,0.151,0.003,0.228,0.005
		C33.368,17.943,33.292,17.95,33.217,17.916z"/>
	<path fill-rule="evenodd" clip-rule="evenodd" fill="#FDFDFD" d="M24.77,15.359c0.017-0.057,0.048-0.104,0.088-0.146
		C24.857,15.279,24.825,15.326,24.77,15.359z"/>
	<path fill-rule="evenodd" clip-rule="evenodd" fill="#FDFDFD" d="M27.698,10.976c-0.069,0.026-0.142,0.004-0.212,0.013
		C27.555,10.957,27.627,10.979,27.698,10.976z"/>
	<path fill-rule="evenodd" clip-rule="evenodd" fill="#FDFDFD" d="M41.616,11.832c0.038,0.05,0.09,0.02,0.136,0.021
		C41.682,11.896,41.633,11.888,41.616,11.832z"/>
	<path fill-rule="evenodd" clip-rule="evenodd" fill="#FDFDFD" d="M23.699,14.2c-0.021,0.052-0.042,0.104-0.091,0.137
		C23.618,14.277,23.646,14.23,23.699,14.2z"/>
	<path fill-rule="evenodd" clip-rule="evenodd" fill="#FDFDFD" d="M21.543,20.052c0.069,0,0.138,0,0.208,0
		C21.681,20.081,21.612,20.082,21.543,20.052z"/>
	<path fill-rule="evenodd" clip-rule="evenodd" fill="#FDFDFD" d="M17.562,17.282c0.023-0.023,0.057-0.057,0.083-0.03
		c0.027,0.028,0.019,0.076,0,0.115C17.653,17.304,17.637,17.265,17.562,17.282z"/>
	<path fill-rule="evenodd" clip-rule="evenodd" fill="#FDFDFD" d="M23.349,17.68c0.031-0.048,0.063-0.096,0.094-0.144
		C23.438,17.602,23.411,17.651,23.349,17.68z"/>
	<path fill-rule="evenodd" clip-rule="evenodd" fill="#FDFDFD" d="M22.603,18.885c0.032-0.049,0.064-0.098,0.097-0.146
		C22.692,18.804,22.663,18.854,22.603,18.885z"/>
	<path fill-rule="evenodd" clip-rule="evenodd" fill="#FDFDFD" d="M26.085,13.153c0.028-0.051,0.048-0.108,0.096-0.147
		C26.174,13.071,26.144,13.121,26.085,13.153z"/>
	<path fill-rule="evenodd" clip-rule="evenodd" fill="#FDFDFD" d="M8.587,15.801c0.004,0.06-0.013,0.114-0.039,0.166
		c-0.007-0.005-0.01-0.011-0.009-0.017c0.001-0.007,0.003-0.01,0.005-0.01C8.547,15.891,8.561,15.844,8.587,15.801z"/>
	<path fill-rule="evenodd" clip-rule="evenodd" fill="#FDFDFD" d="M14.486,11.625c-0.033-0.038-0.08-0.064-0.098-0.115
		C14.44,11.532,14.481,11.564,14.486,11.625z"/>
	<path fill-rule="evenodd" clip-rule="evenodd" fill="#FFFFFF" d="M14.697,13.805c-0.01-0.029,0.01-0.048,0.023-0.069
		c0.024,0.003,0.046,0.011,0.04,0.041C14.753,13.811,14.722,13.802,14.697,13.805z"/>
	<path fill-rule="evenodd" clip-rule="evenodd" fill="#FDFDFD" d="M9.519,11.809c-0.003,0.056-0.01,0.11-0.044,0.157
		C9.472,11.909,9.484,11.856,9.519,11.809z"/>
	<path fill-rule="evenodd" clip-rule="evenodd" fill="#FDFDFD" d="M25.786,17.426c0,0.062,0,0.123,0,0.185
		C25.754,17.549,25.754,17.487,25.786,17.426z"/>
	<path fill-rule="evenodd" clip-rule="evenodd" fill="#FDFDFD" d="M42.363,11.854c0.044,0,0.088,0,0.132,0
		c-0.038,0.053-0.09,0.015-0.136,0.018c0,0-0.003-0.006-0.002-0.009C42.357,11.86,42.36,11.857,42.363,11.854z"/>
	<path fill-rule="evenodd" clip-rule="evenodd" fill="#FDFDFD" d="M29.545,15.567c0.061-0.033,0.126-0.016,0.189-0.021
		C29.675,15.59,29.608,15.56,29.545,15.567z"/>
	<path fill-rule="evenodd" clip-rule="evenodd" fill="#FDFDFD" d="M37.375,14.082c0.001-0.061,0.002-0.122,0.002-0.182
		C37.402,13.961,37.404,14.021,37.375,14.082z"/>
	<path fill-rule="evenodd" clip-rule="evenodd" fill="#FDFDFD" d="M9.447,12.111c-0.008,0.054-0.007,0.111-0.042,0.158
		C9.402,12.212,9.416,12.159,9.447,12.111z"/>
	<path fill-rule="evenodd" clip-rule="evenodd" fill="#FDFDFD" d="M9.951,17.144c0.025-0.053,0.017-0.116,0.055-0.165
		C10.01,17.041,10.008,17.102,9.951,17.144z"/>
	<path fill-rule="evenodd" clip-rule="evenodd" fill="#FDFDFD" d="M8.913,14.386c0.008,0.061-0.012,0.115-0.04,0.168
		C8.866,14.493,8.88,14.437,8.913,14.386z"/>
	<path fill-rule="evenodd" clip-rule="evenodd" fill="#FDFDFD" d="M14.755,13.593c0.018-0.055,0.037-0.111,0.055-0.166
		C14.814,13.49,14.812,13.551,14.755,13.593z"/>
	<path fill-rule="evenodd" clip-rule="evenodd" fill="#FFFFFF" d="M14.327,16.887c0.048,0.034,0.02,0.079,0.019,0.12
		C14.285,16.976,14.303,16.932,14.327,16.887z"/>
	<path fill-rule="evenodd" clip-rule="evenodd" fill="#FFFFFF" d="M17.853,13.69c0.061-0.004,0.115,0.013,0.167,0.044
		C17.958,13.738,17.902,13.728,17.853,13.69z"/>
	<path fill-rule="evenodd" clip-rule="evenodd" fill="#FDFDFD" d="M14.742,17.618c0.043,0.022,0.091,0.038,0.115,0.086
		C14.807,17.691,14.764,17.669,14.742,17.618z"/>
	<path fill-rule="evenodd" clip-rule="evenodd" fill="#FDFDFD" d="M8.201,17.553c0.02,0.05,0.04,0.101,0.06,0.151
		C8.188,17.675,8.198,17.612,8.201,17.553z"/>
	<path fill-rule="evenodd" clip-rule="evenodd" fill="#FFFFFF" d="M16.773,13.687c0.063-0.03,0.131-0.013,0.197-0.018
		C16.907,13.709,16.838,13.681,16.773,13.687z"/>
	<path fill-rule="evenodd" clip-rule="evenodd" fill="#FDFDFD" d="M41.762,11.599c0.005-0.065,0.011-0.13,0.016-0.196
		C41.772,11.469,41.798,11.536,41.762,11.599z"/>
	<path fill-rule="evenodd" clip-rule="evenodd" fill="#FDFDFD" d="M12.598,15.473c0.054-0.026,0.109-0.049,0.171-0.041
		C12.718,15.468,12.661,15.481,12.598,15.473z"/>
	<path fill-rule="evenodd" clip-rule="evenodd" fill="#FDFDFD" d="M20.452,12.783c-0.001,0.062-0.002,0.124-0.003,0.186
		C20.418,12.906,20.414,12.844,20.452,12.783z"/>
	<path fill-rule="evenodd" clip-rule="evenodd" fill="#FDFDFD" d="M9.263,12.9c-0.001,0.056-0.008,0.11-0.044,0.157
		C9.217,13,9.229,12.947,9.263,12.9z"/>
	<path fill-rule="evenodd" clip-rule="evenodd" fill="#FFFFFF" d="M22.124,19.63c0-0.033,0.033-0.045,0.046-0.069
		c0.019,0.012,0.045,0.024,0.034,0.049C22.188,19.645,22.151,19.625,22.124,19.63z"/>
	<path fill-rule="evenodd" clip-rule="evenodd" fill="#FDFDFD" d="M14.48,15.801c-0.007,0.055-0.032,0.102-0.06,0.147
		C14.414,15.888,14.433,15.839,14.48,15.801z"/>
	<path fill-rule="evenodd" clip-rule="evenodd" fill="#FDFDFD" d="M20.359,20.028c0.063,0.015,0.129-0.01,0.191,0.018
		C20.487,20.04,20.42,20.066,20.359,20.028z"/>
	<path fill-rule="evenodd" clip-rule="evenodd" fill="#FFFFFF" d="M16.595,13.71c0.052-0.036,0.111-0.013,0.167-0.021
		C16.711,13.733,16.65,13.704,16.595,13.71z"/>
	<path fill-rule="evenodd" clip-rule="evenodd" fill="#FDFDFD" d="M15.458,13.434c-0.001,0.057,0.009,0.115-0.018,0.169
		C15.445,13.546,15.42,13.487,15.458,13.434z"/>
	<path fill-rule="evenodd" clip-rule="evenodd" fill="#FDFDFD" d="M23.204,17.91c0.026-0.039,0.052-0.078,0.078-0.117
		C23.287,17.854,23.264,17.894,23.204,17.91z"/>
	<path fill-rule="evenodd" clip-rule="evenodd" fill="#FDFDFD" d="M13.739,15.01c0.04-0.027,0.079-0.053,0.118-0.08
		C13.843,14.993,13.792,15.003,13.739,15.01z"/>
	<path fill-rule="evenodd" clip-rule="evenodd" fill="#FDFDFD" d="M15.937,17.91c0.056-0.03,0.116-0.011,0.174-0.017
		C16.056,17.931,15.995,17.905,15.937,17.91z"/>
	<path fill-rule="evenodd" clip-rule="evenodd" fill="#FDFDFD" d="M23.026,15.291c-0.011,0.043-0.033,0.08-0.068,0.109
		C22.953,15.346,22.983,15.314,23.026,15.291z"/>
	<path fill-rule="evenodd" clip-rule="evenodd" fill="#FDFDFD" d="M22.717,18.699c0.026-0.038,0.052-0.076,0.079-0.114
		C22.799,18.644,22.775,18.684,22.717,18.699z"/>
	<path fill-rule="evenodd" clip-rule="evenodd" fill="#FDFDFD" d="M14.022,11.247c-0.047-0.007-0.081-0.039-0.119-0.063
		C13.958,11.174,13.995,11.202,14.022,11.247z"/>
	<path fill-rule="evenodd" clip-rule="evenodd" fill="#FDFDFD" d="M20.867,18.841c-0.007,0.048-0.035,0.082-0.068,0.113
		C20.794,18.9,20.822,18.866,20.867,18.841z"/>
	<path fill-rule="evenodd" clip-rule="evenodd" fill="#FDFDFD" d="M20.703,19.097c-0.007,0.046-0.032,0.08-0.066,0.109
		C20.632,19.153,20.662,19.121,20.703,19.097z"/>
	<path fill-rule="evenodd" clip-rule="evenodd" fill="#FDFDFD" d="M20.451,19.49c-0.002,0.052-0.039,0.082-0.068,0.117
		C20.375,19.552,20.404,19.516,20.451,19.49z"/>
	<path fill-rule="evenodd" clip-rule="evenodd" fill="#FDFDFD" d="M17.384,17.377c0.038-0.025,0.071-0.059,0.12-0.063
		C17.476,17.358,17.44,17.387,17.384,17.377z"/>
	<path fill-rule="evenodd" clip-rule="evenodd" fill="#FDFDFD" d="M15.462,14.921c-0.035,0.025-0.072,0.047-0.117,0.047
		C15.379,14.938,15.408,14.898,15.462,14.921z"/>
	<path fill-rule="evenodd" clip-rule="evenodd" fill="#FDFDFD" d="M21.814,20.022c0.033-0.032,0.065-0.063,0.098-0.096
		C21.908,19.988,21.876,20.021,21.814,20.022z"/>
	<path fill-rule="evenodd" clip-rule="evenodd" fill="#FDFDFD" d="M24.625,15.591c0.024-0.04,0.048-0.079,0.072-0.119
		C24.705,15.53,24.679,15.569,24.625,15.591z"/>
	<path fill-rule="evenodd" clip-rule="evenodd" fill="#FDFDFD" d="M15.138,17.825c0.053-0.004,0.101,0.013,0.146,0.038
		C15.23,17.871,15.18,17.864,15.138,17.825z"/>
	<path fill-rule="evenodd" clip-rule="evenodd" fill="#FFFFFF" d="M18.157,13.821c0.032,0.026,0.063,0.054,0.066,0.099
		C18.185,13.898,18.152,13.872,18.157,13.821z"/>
	<path fill-rule="evenodd" clip-rule="evenodd" fill="#FDFDFD" d="M22.284,13.971c-0.032-0.043-0.023-0.094-0.026-0.142
		C22.308,13.869,22.276,13.923,22.284,13.971z"/>
	<path fill-rule="evenodd" clip-rule="evenodd" fill="#FDFDFD" d="M23.927,13.829c0.001,0.047-0.034,0.072-0.061,0.103
		C23.858,13.88,23.891,13.854,23.927,13.829z"/>
	<path fill-rule="evenodd" clip-rule="evenodd" fill="#FDFDFD" d="M15.555,13.923c0.046,0.001,0.092,0.003,0.138,0.004
		C15.646,13.952,15.6,13.957,15.555,13.923z"/>
	<path fill-rule="evenodd" clip-rule="evenodd" fill="#FFFFFF" d="M18.271,14.104c0.021,0.049,0.018,0.098,0.001,0.146
		C18.271,14.202,18.271,14.153,18.271,14.104z"/>
	<path fill-rule="evenodd" clip-rule="evenodd" fill="#FDFDFD" d="M42.189,11.598c0.018-0.04,0.034-0.081,0.052-0.121
		C42.244,11.526,42.241,11.572,42.189,11.598z"/>
	<path fill-rule="evenodd" clip-rule="evenodd" fill="#FDFDFD" d="M14.25,14.569c0.025-0.028,0.05-0.055,0.075-0.083
		C14.326,14.537,14.308,14.571,14.25,14.569z"/>
	<path fill-rule="evenodd" clip-rule="evenodd" fill="#FDFDFD" d="M23.51,14.501c0,0.046-0.035,0.072-0.061,0.103
		C23.441,14.553,23.474,14.526,23.51,14.501z"/>
	<path fill-rule="evenodd" clip-rule="evenodd" fill="#FDFDFD" d="M23.442,14.618c-0.005,0.043-0.034,0.072-0.063,0.1
		C23.373,14.667,23.405,14.641,23.442,14.618z"/>
	<path fill-rule="evenodd" clip-rule="evenodd" fill="#FFFFFF" d="M16.375,14.712c-0.046,0.026-0.098,0.012-0.147,0.018
		C16.273,14.693,16.326,14.716,16.375,14.712z"/>
	<path fill-rule="evenodd" clip-rule="evenodd" fill="#FDFDFD" d="M15.659,14.852c-0.039,0.026-0.081,0.041-0.127,0.043
		C15.565,14.855,15.609,14.845,15.659,14.852z"/>
	<path fill-rule="evenodd" clip-rule="evenodd" fill="#FDFDFD" d="M15.025,15.152c-0.028,0.029-0.054,0.061-0.096,0.072
		C14.947,15.181,14.975,15.151,15.025,15.152z"/>
	<path fill-rule="evenodd" clip-rule="evenodd" fill="#FDFDFD" d="M23.115,15.151c-0.017,0.033-0.026,0.072-0.064,0.09
		C23.059,15.201,23.065,15.16,23.115,15.151z"/>
	<path fill-rule="evenodd" clip-rule="evenodd" fill="#FDFDFD" d="M14.411,14.36c0.018-0.039,0.041-0.072,0.074-0.1
		C14.488,14.314,14.458,14.344,14.411,14.36z"/>
	<path fill-rule="evenodd" clip-rule="evenodd" fill="#FDFDFD" d="M12.949,15.381c0.038-0.021,0.074-0.048,0.122-0.039
		C13.036,15.373,12.996,15.387,12.949,15.381z"/>
	<path fill-rule="evenodd" clip-rule="evenodd" fill="#FDFDFD" d="M14.676,15.477c-0.012,0.04-0.033,0.073-0.073,0.09
		C14.606,15.521,14.635,15.494,14.676,15.477z"/>
	<path fill-rule="evenodd" clip-rule="evenodd" fill="#FDFDFD" d="M12.163,15.544c0.043-0.036,0.095-0.018,0.143-0.022
		C12.264,15.564,12.211,15.539,12.163,15.544z"/>
	<path fill-rule="evenodd" clip-rule="evenodd" fill="#FDFDFD" d="M10.579,15.566c0.053-0.021,0.106-0.021,0.159,0
		C10.685,15.566,10.632,15.566,10.579,15.566z"/>
	<path fill-rule="evenodd" clip-rule="evenodd" fill="#FDFDFD" d="M24.517,15.777c0.005-0.043,0.032-0.073,0.063-0.1
		C24.585,15.727,24.553,15.753,24.517,15.777z"/>
	<path fill-rule="evenodd" clip-rule="evenodd" fill="#FDFDFD" d="M24.447,15.893c0.001-0.046,0.034-0.072,0.063-0.101
		C24.516,15.843,24.484,15.869,24.447,15.893z"/>
	<path fill-rule="evenodd" clip-rule="evenodd" fill="#FDFDFD" d="M24.121,16.428c0.005-0.044,0.033-0.074,0.064-0.103
		C24.192,16.377,24.158,16.403,24.121,16.428z"/>
	<path fill-rule="evenodd" clip-rule="evenodd" fill="#FDFDFD" d="M31.867,16.428c-0.006,0.049-0.012,0.098-0.019,0.146
		C31.853,16.524,31.829,16.473,31.867,16.428z"/>
	<path fill-rule="evenodd" clip-rule="evenodd" fill="#FDFDFD" d="M23.867,16.845c0.002-0.046,0.034-0.072,0.063-0.101
		C23.936,16.795,23.903,16.82,23.867,16.845z"/>
	<path fill-rule="evenodd" clip-rule="evenodd" fill="#FDFDFD" d="M23.79,16.96c0.014-0.04,0.04-0.073,0.07-0.103
		C23.866,16.911,23.835,16.94,23.79,16.96z"/>
	<path fill-rule="evenodd" clip-rule="evenodd" fill="#FDFDFD" d="M23.612,17.262c0.003-0.044,0.033-0.071,0.063-0.1
		C23.681,17.213,23.648,17.238,23.612,17.262z"/>
	<path fill-rule="evenodd" clip-rule="evenodd" fill="#FDFDFD" d="M8.241,17.286c0.008,0.041-0.001,0.08-0.022,0.115
		C8.185,17.355,8.226,17.323,8.241,17.286z"/>
	<path fill-rule="evenodd" clip-rule="evenodd" fill="#FDFDFD" d="M23.543,17.378c0-0.046,0.034-0.072,0.062-0.102
		C23.612,17.327,23.579,17.354,23.543,17.378z"/>
	<path fill-rule="evenodd" clip-rule="evenodd" fill="#FDFDFD" d="M14.51,17.378c0.042,0.018,0.06,0.053,0.073,0.092
		C14.542,17.453,14.513,17.426,14.51,17.378z"/>
	<path fill-rule="evenodd" clip-rule="evenodd" fill="#FDFDFD" d="M19.047,17.655c0.026-0.033,0.053-0.065,0.079-0.098
		C19.128,17.613,19.098,17.643,19.047,17.655z"/>
	<path fill-rule="evenodd" clip-rule="evenodd" fill="#FDFDFD" d="M17.639,17.588c0.001,0.047,0.002,0.093,0.003,0.139
		C17.607,17.682,17.611,17.635,17.639,17.588z"/>
	<path fill-rule="evenodd" clip-rule="evenodd" fill="#FDFDFD" d="M18.73,17.771c0.045-0.026,0.094-0.018,0.143-0.019
		C18.829,17.79,18.778,17.768,18.73,17.771z"/>
	<path fill-rule="evenodd" clip-rule="evenodd" fill="#FDFDFD" d="M24.089,13.573c-0.011,0.037-0.022,0.075-0.063,0.091
		C24.034,13.624,24.04,13.583,24.089,13.573z"/>
	<path fill-rule="evenodd" clip-rule="evenodd" fill="#FDFDFD" d="M41.688,11.021c-0.008,0.04-0.015,0.081-0.022,0.121
		C41.674,11.102,41.64,11.054,41.688,11.021z"/>
	<path fill-rule="evenodd" clip-rule="evenodd" fill="#FDFDFD" d="M14.183,11.352c-0.034-0.024-0.067-0.049-0.101-0.074
		C14.137,11.274,14.167,11.303,14.183,11.352z"/>
	<path fill-rule="evenodd" clip-rule="evenodd" fill="#FDFDFD" d="M42.174,11.298c-0.005,0.042-0.008,0.084-0.046,0.112
		C42.126,11.366,42.139,11.327,42.174,11.298z"/>
	<path fill-rule="evenodd" clip-rule="evenodd" fill="#FDFDFD" d="M15.509,17.896c0.051,0,0.103-0.011,0.15,0.015
		C15.609,17.907,15.557,17.928,15.509,17.896z"/>
	<path fill-rule="evenodd" clip-rule="evenodd" fill="#FDFDFD" d="M14.392,11.513c-0.044-0.008-0.063-0.048-0.093-0.074
		C14.349,11.439,14.377,11.467,14.392,11.513z"/>
	<path fill-rule="evenodd" clip-rule="evenodd" fill="#FDFDFD" d="M14.646,11.842c-0.036-0.025-0.054-0.063-0.073-0.101
		C14.622,11.757,14.651,11.788,14.646,11.842z"/>
	<path fill-rule="evenodd" clip-rule="evenodd" fill="#FDFDFD" d="M22.87,18.469c0.002-0.045,0.031-0.074,0.062-0.102
		C22.939,18.418,22.906,18.444,22.87,18.469z"/>
	<path fill-rule="evenodd" clip-rule="evenodd" fill="#FDFDFD" d="M21.031,18.586c-0.004,0.046-0.036,0.074-0.065,0.104
		C20.958,18.637,20.991,18.608,21.031,18.586z"/>
	<path fill-rule="evenodd" clip-rule="evenodd" fill="#FDFDFD" d="M42.103,11.854c0.008-0.043,0.016-0.086,0.046-0.122
		C42.153,11.781,42.145,11.824,42.103,11.854z"/>
	<path fill-rule="evenodd" clip-rule="evenodd" fill="#FDFDFD" d="M16.958,12.554c-0.047,0.028-0.099,0.011-0.149,0.017
		C16.854,12.535,16.908,12.557,16.958,12.554z"/>
	<path fill-rule="evenodd" clip-rule="evenodd" fill="#FDFDFD" d="M34.177,12.578c-0.047,0.029-0.099,0.015-0.148,0.019
		C34.073,12.557,34.127,12.581,34.177,12.578z"/>
	<path fill-rule="evenodd" clip-rule="evenodd" fill="#FDFDFD" d="M20.797,18.956c-0.01,0.04-0.024,0.077-0.067,0.094
		C20.731,19.003,20.763,18.979,20.797,18.956z"/>
	<path fill-rule="evenodd" clip-rule="evenodd" fill="#FDFDFD" d="M16.467,12.6c-0.044,0.035-0.097,0.016-0.146,0.023
		C16.364,12.577,16.418,12.605,16.467,12.6z"/>
	<path fill-rule="evenodd" clip-rule="evenodd" fill="#FDFDFD" d="M22.305,19.351c0.023-0.033,0.047-0.066,0.07-0.1
		C22.372,19.299,22.366,19.345,22.305,19.351z"/>
	<path fill-rule="evenodd" clip-rule="evenodd" fill="#FDFDFD" d="M20.545,12.621c-0.003,0.046-0.047,0.065-0.068,0.099
		C20.473,12.669,20.505,12.642,20.545,12.621z"/>
	<path fill-rule="evenodd" clip-rule="evenodd" fill="#FDFDFD" d="M14.84,13.224c0.004-0.046-0.012-0.095,0.019-0.138
		C14.852,13.132,14.874,13.182,14.84,13.224z"/>
	<path fill-rule="evenodd" clip-rule="evenodd" fill="#FFFFFF" d="M9.146,13.318c0.017,0.037,0.002,0.065-0.022,0.092
		C9.083,13.367,9.111,13.342,9.146,13.318z"/>
	<path fill-rule="evenodd" clip-rule="evenodd" fill="#FDFDFD" d="M19.706,13.421c-0.025-0.034-0.049-0.067-0.074-0.101
		C19.681,13.335,19.71,13.366,19.706,13.421z"/>
	<path fill-rule="evenodd" clip-rule="evenodd" fill="#FDFDFD" d="M33.004,13.341c-0.005,0.049,0.01,0.1-0.018,0.146
		C32.989,13.438,32.966,13.386,33.004,13.341z"/>
	<path fill-rule="evenodd" clip-rule="evenodd" fill="#FFFFFF" d="M15.804,13.872c0.036-0.027,0.076-0.042,0.122-0.041
		C15.892,13.866,15.851,13.878,15.804,13.872z"/>
	<path fill-rule="evenodd" clip-rule="evenodd" fill="#FDFDFD" d="M25.245,14.568c0.01-0.037,0.027-0.069,0.055-0.095
		C25.298,14.514,25.291,14.551,25.245,14.568z"/>
	<path fill-rule="evenodd" clip-rule="evenodd" fill="#FDFDFD" d="M18.897,12.734c-0.037-0.006-0.072-0.014-0.101-0.041
		C18.838,12.688,18.875,12.692,18.897,12.734z"/>
	<path fill-rule="evenodd" clip-rule="evenodd" fill="#FFFFFF" d="M8.544,15.941c0.001,0.009,0.002,0.018,0.004,0.026
		c0.003,0.019,0.007,0.039-0.02,0.044C8.479,15.977,8.517,15.96,8.544,15.941z"/>
	<path fill-rule="evenodd" clip-rule="evenodd" fill="#FFFFFF" d="M18.248,13.99c0.031,0.026,0.02,0.061,0.019,0.093
		C18.247,14.054,18.225,14.026,18.248,13.99z"/>
	<path fill-rule="evenodd" clip-rule="evenodd" fill="#FDFDFD" d="M21.056,16.354c0.032,0.035,0.022,0.079,0.024,0.12
		C21.038,16.44,21.061,16.395,21.056,16.354z"/>
	<path fill-rule="evenodd" clip-rule="evenodd" fill="#FDFDFD" d="M24.065,16.518c0.012-0.033,0.026-0.064,0.055-0.088
		C24.119,16.47,24.114,16.508,24.065,16.518z"/>
	<path fill-rule="evenodd" clip-rule="evenodd" fill="#FFFFFF" d="M18.061,13.758c0.038-0.008,0.054,0.017,0.071,0.043
		C18.081,13.833,18.083,13.775,18.061,13.758z"/>
	<path fill-rule="evenodd" clip-rule="evenodd" fill="#FDFDFD" d="M26.312,12.758c0.013-0.037,0.011-0.074,0.006-0.112
		C26.359,12.686,26.365,12.724,26.312,12.758z"/>
	<path fill-rule="evenodd" clip-rule="evenodd" fill="#FDFDFD" d="M22.259,13.832c-0.032-0.035-0.012-0.08-0.024-0.119
		C22.28,13.745,22.256,13.791,22.259,13.832z"/>
	<path fill-rule="evenodd" clip-rule="evenodd" fill="#FDFDFD" d="M16.323,12.623c-0.035,0.031-0.078,0.014-0.118,0.019
		C16.24,12.607,16.283,12.625,16.323,12.623z"/>
	<path fill-rule="evenodd" clip-rule="evenodd" fill="#FDFDFD" d="M13.508,15.149c0.031-0.019,0.055-0.051,0.097-0.046
		C13.587,15.148,13.55,15.153,13.508,15.149z"/>
	<path fill-rule="evenodd" clip-rule="evenodd" fill="#FDFDFD" d="M33.989,12.6c-0.041,0.006-0.082,0.012-0.123,0.018
		C33.903,12.583,33.947,12.603,33.989,12.6z"/>
	<path fill-rule="evenodd" clip-rule="evenodd" fill="#FDFDFD" d="M24.965,12.554c-0.04,0.027-0.085,0.012-0.127,0.019
		C24.876,12.536,24.922,12.557,24.965,12.554z"/>
	<path fill-rule="evenodd" clip-rule="evenodd" fill="#FDFDFD" d="M37.349,14.361c0.005-0.041-0.006-0.084,0.02-0.122
		C37.365,14.281,37.385,14.325,37.349,14.361z"/>
	<path fill-rule="evenodd" clip-rule="evenodd" fill="#FDFDFD" d="M18.223,12.57c-0.042-0.003-0.085,0.01-0.124-0.016
		C18.14,12.556,18.185,12.538,18.223,12.57z"/>
	<path fill-rule="evenodd" clip-rule="evenodd" fill="#FDFDFD" d="M14.811,12.25c-0.031-0.022-0.016-0.063-0.034-0.09
		C14.819,12.178,14.829,12.209,14.811,12.25z"/>
	<path fill-rule="evenodd" clip-rule="evenodd" fill="#FDFDFD" d="M22.494,15.267c-0.031-0.034-0.015-0.077-0.023-0.116
		C22.509,15.183,22.488,15.228,22.494,15.267z"/>
	<path fill-rule="evenodd" clip-rule="evenodd" fill="#FFFFFF" d="M20.713,14.573c0.006,0.022,0.039,0.038,0.016,0.067
		C20.68,14.628,20.666,14.608,20.713,14.573z"/>
	<path fill-rule="evenodd" clip-rule="evenodd" fill="#FDFDFD" d="M14.739,12.028c-0.033-0.025-0.038-0.066-0.056-0.101
		C14.733,11.944,14.739,11.984,14.739,12.028z"/>
	<path fill-rule="evenodd" clip-rule="evenodd" fill="#FDFDFD" d="M37.647,17.332c-0.005,0.041,0.005,0.085-0.021,0.122
		C37.63,17.413,37.609,17.368,37.647,17.332z"/>
	<path fill-rule="evenodd" clip-rule="evenodd" fill="#FDFDFD" d="M20.568,13.709c0.031,0.035,0.021,0.078,0.024,0.119
		C20.551,13.795,20.573,13.75,20.568,13.709z"/>
	<path fill-rule="evenodd" clip-rule="evenodd" fill="#FDFDFD" d="M17.271,17.444c0.02-0.021,0.039-0.041,0.071-0.037
		C17.318,17.42,17.319,17.479,17.271,17.444z"/>
	<path fill-rule="evenodd" clip-rule="evenodd" fill="#FDFDFD" d="M41.989,11.86c0.038-0.002,0.076-0.005,0.114-0.007
		C42.067,11.893,42.029,11.886,41.989,11.86z"/>
	<path fill-rule="evenodd" clip-rule="evenodd" fill="#FDFDFD" d="M14.583,17.468c0.027,0.02,0.055,0.038,0.063,0.073
		C14.601,17.537,14.58,17.513,14.583,17.468z"/>
	<path fill-rule="evenodd" clip-rule="evenodd" fill="#FDFDFD" d="M42.078,11.577c-0.002,0.021,0.01,0.048-0.021,0.054
		c-0.007,0.001-0.019-0.019-0.027-0.029C42.046,11.594,42.063,11.585,42.078,11.577z"/>
	<path fill-rule="evenodd" clip-rule="evenodd" fill="#FDFDFD" d="M42.282,11.342c0.012-0.018,0.001-0.055,0.029-0.053
		c0.03,0.001,0.022,0.033,0.021,0.056C42.316,11.344,42.299,11.343,42.282,11.342z"/>
	<path fill-rule="evenodd" clip-rule="evenodd" fill="#FFFFFF" d="M16.454,13.733c0.037-0.03,0.079-0.025,0.122-0.019
		C16.54,13.75,16.495,13.73,16.454,13.733z"/>
	<path fill-rule="evenodd" clip-rule="evenodd" fill="#FDFDFD" d="M13.156,15.311c0.027-0.03,0.062-0.039,0.101-0.04
		C13.234,15.313,13.197,15.316,13.156,15.311z"/>
	<path fill-rule="evenodd" clip-rule="evenodd" fill="#FDFDFD" d="M9.677,11.183c-0.007,0.033-0.007,0.069-0.041,0.09
		C9.634,11.236,9.641,11.203,9.677,11.183z"/>
	<path fill-rule="evenodd" clip-rule="evenodd" fill="#FDFDFD" d="M14.905,17.728c0.036,0.003,0.069,0.011,0.088,0.046
		C14.955,17.775,14.922,17.768,14.905,17.728z"/>
	<path fill-rule="evenodd" clip-rule="evenodd" fill="#FDFDFD" d="M13.837,11.16c-0.033-0.016-0.074-0.015-0.1-0.044
		C13.779,11.11,13.818,11.113,13.837,11.16z"/>
	<path fill-rule="evenodd" clip-rule="evenodd" fill="#FDFDFD" d="M42.261,11.067c-0.004,0.035-0.007,0.069-0.04,0.091
		C42.218,11.121,42.224,11.087,42.261,11.067z"/>
	<path fill-rule="evenodd" clip-rule="evenodd" fill="#FDFDFD" d="M22.516,15.386c-0.033-0.035-0.019-0.079-0.022-0.119
		C22.533,15.301,22.512,15.346,22.516,15.386z"/>
	<path fill-rule="evenodd" clip-rule="evenodd" fill="#FDFDFD" d="M22.401,14.732c-0.031-0.034-0.014-0.076-0.02-0.115
		C22.415,14.651,22.396,14.694,22.401,14.732z"/>
	<path fill-rule="evenodd" clip-rule="evenodd" fill="#FDFDFD" d="M42.45,11.121c-0.025-0.029-0.008-0.068-0.021-0.1
		C42.481,11.045,42.441,11.088,42.45,11.121z"/>
	<path fill-rule="evenodd" clip-rule="evenodd" fill="#FDFDFD" d="M30.987,11.019c-0.041,0-0.084,0.009-0.12-0.02
		C30.908,11.001,30.952,10.981,30.987,11.019z"/>
	<path fill-rule="evenodd" clip-rule="evenodd" fill="#FDFDFD" d="M22.354,14.411c-0.032-0.035-0.019-0.079-0.021-0.119
		C22.37,14.326,22.35,14.371,22.354,14.411z"/>
	<path fill-rule="evenodd" clip-rule="evenodd" fill="#FDFDFD" d="M22.236,13.715c-0.028-0.036-0.012-0.08-0.02-0.119
		C22.254,13.63,22.234,13.675,22.236,13.715z"/>
	<path fill-rule="evenodd" clip-rule="evenodd" fill="#FDFDFD" d="M19.775,13.582c-0.016-0.034-0.033-0.067-0.049-0.1
		C19.78,13.497,19.78,13.538,19.775,13.582z"/>
	<path fill-rule="evenodd" clip-rule="evenodd" fill="#FDFDFD" d="M14.736,15.406c-0.009,0.034-0.032,0.056-0.061,0.073
		C14.673,15.435,14.693,15.411,14.736,15.406z"/>
	<path fill-rule="evenodd" clip-rule="evenodd" fill="#FDFDFD" d="M20.521,13.418c0.033,0.031,0.014,0.072,0.023,0.108
		C20.507,13.496,20.526,13.455,20.521,13.418z"/>
	<path fill-rule="evenodd" clip-rule="evenodd" fill="#FDFDFD" d="M22.332,14.292c-0.031-0.034-0.017-0.076-0.02-0.115
		C22.345,14.21,22.327,14.253,22.332,14.292z"/>
	<path fill-rule="evenodd" clip-rule="evenodd" fill="#FDFDFD" d="M15.48,13.295c-0.002,0.041,0.007,0.083-0.017,0.12
		C15.466,13.375,15.448,13.332,15.48,13.295z"/>
	<path fill-rule="evenodd" clip-rule="evenodd" fill="#FDFDFD" d="M12.306,15.522c0.034-0.033,0.076-0.015,0.115-0.019
		C12.387,15.536,12.344,15.517,12.306,15.522z"/>
	<path fill-rule="evenodd" clip-rule="evenodd" fill="#FDFDFD" d="M20.639,14.103c0.031,0.036,0.025,0.078,0.022,0.12
		C20.621,14.188,20.643,14.143,20.639,14.103z"/>
	<path fill-rule="evenodd" clip-rule="evenodd" fill="#FDFDFD" d="M29.752,15.543c0.04-0.006,0.081-0.012,0.121-0.018
		C29.837,15.56,29.793,15.541,29.752,15.543z"/>
	<path fill-rule="evenodd" clip-rule="evenodd" fill="#FFFFFF" d="M18.224,14.478c-0.003,0.036-0.005,0.073-0.046,0.09
		C18.182,14.532,18.194,14.5,18.224,14.478z"/>
	<path fill-rule="evenodd" clip-rule="evenodd" fill="#FDFDFD" d="M28.175,15.566c0.043-0.024,0.085-0.024,0.128,0
		C28.26,15.566,28.218,15.566,28.175,15.566z"/>
	<path fill-rule="evenodd" clip-rule="evenodd" fill="#FDFDFD" d="M22.19,13.392c-0.034-0.035-0.018-0.08-0.022-0.121
		C22.209,13.305,22.187,13.351,22.19,13.392z"/>
	<path fill-rule="evenodd" clip-rule="evenodd" fill="#FDFDFD" d="M22.168,13.272c-0.033-0.035-0.015-0.078-0.021-0.118
		C22.184,13.188,22.164,13.232,22.168,13.272z"/>
	<path fill-rule="evenodd" clip-rule="evenodd" fill="#FDFDFD" d="M10.37,15.659c0.022-0.026,0.033-0.066,0.079-0.063
		C10.429,15.625,10.409,15.653,10.37,15.659z"/>
	<path fill-rule="evenodd" clip-rule="evenodd" fill="#FDFDFD" d="M22.146,13.153c-0.033-0.033-0.014-0.076-0.02-0.113
		C22.159,13.073,22.141,13.115,22.146,13.153z"/>
	<path fill-rule="evenodd" clip-rule="evenodd" fill="#FDFDFD" d="M20.453,12.988c0.007,0.041,0.014,0.081,0.021,0.121
		C20.436,13.073,20.457,13.029,20.453,12.988z"/>
	<path fill-rule="evenodd" clip-rule="evenodd" fill="#FDFDFD" d="M20.29,19.77c-0.008,0.039,0.004,0.083-0.023,0.119
		C20.271,19.848,20.249,19.803,20.29,19.77z"/>
	<path fill-rule="evenodd" clip-rule="evenodd" fill="#FDFDFD" d="M21.966,19.862c0.013-0.032,0.034-0.057,0.062-0.077
		C22.031,19.83,22.011,19.856,21.966,19.862z"/>
	<path fill-rule="evenodd" clip-rule="evenodd" fill="#FDFDFD" d="M20.267,19.929c0.019,0.031,0.038,0.063,0.058,0.093
		C20.269,20.014,20.264,19.974,20.267,19.929z"/>
	<path fill-rule="evenodd" clip-rule="evenodd" fill="#FDFDFD" d="M14.529,14.175c0.017-0.032,0.033-0.063,0.049-0.096
		C14.582,14.121,14.579,14.16,14.529,14.175z"/>
	<path fill-rule="evenodd" clip-rule="evenodd" fill="#FDFDFD" d="M24.513,12.9c0.001,0.033-0.016,0.055-0.042,0.071
		C24.438,12.919,24.496,12.922,24.513,12.9z"/>
	<path fill-rule="evenodd" clip-rule="evenodd" fill="#FDFDFD" d="M15.575,12.9c-0.001,0.039-0.021,0.07-0.041,0.101
		C15.529,12.959,15.532,12.922,15.575,12.9z"/>
	<path fill-rule="evenodd" clip-rule="evenodd" fill="#FDFDFD" d="M31.85,16.651c0.02,0.039,0.015,0.081,0.016,0.123
		C31.833,16.736,31.851,16.692,31.85,16.651z"/>
	<path fill-rule="evenodd" clip-rule="evenodd" fill="#FFFFFF" d="M28.904,14.289c-0.127,0-0.256,0.004-0.381-0.027
		c-0.137-0.035-0.185-0.097-0.187-0.238c-0.002-0.191,0.053-0.374,0.092-0.558c0.067-0.321,0.15-0.638,0.235-0.955
		c0.05-0.184,0.165-0.282,0.354-0.293c0.333-0.02,0.664-0.02,0.986,0.081c0.334,0.104,0.572,0.299,0.636,0.663
		c0.067,0.392-0.042,0.721-0.362,0.964c-0.363,0.276-0.794,0.342-1.235,0.363C28.997,14.291,28.95,14.289,28.904,14.289z"/>
	<path fill-rule="evenodd" clip-rule="evenodd" fill="#FFFFFF" d="M11.276,14.289c-0.062-0.007-0.174,0.004-0.285-0.019
		c-0.196-0.041-0.266-0.127-0.233-0.324c0.034-0.205,0.072-0.409,0.12-0.61c0.068-0.288,0.145-0.572,0.219-0.858
		c0.034-0.131,0.122-0.228,0.25-0.244c0.417-0.054,0.834-0.053,1.226,0.123c0.495,0.222,0.663,0.851,0.366,1.312
		c-0.178,0.276-0.447,0.416-0.748,0.509C11.91,14.264,11.619,14.29,11.276,14.289z"/>
	<path fill-rule="evenodd" clip-rule="evenodd" fill="#FFFFFF" d="M35.088,15.38c0.101,0,0.2,0.001,0.301,0
		c0.11-0.001,0.172,0.062,0.169,0.163c-0.014,0.367-0.08,0.721-0.326,1.014c-0.141,0.167-0.33,0.249-0.541,0.286
		c-0.229,0.039-0.457,0.065-0.69,0.038c-0.262-0.031-0.455-0.148-0.519-0.419c-0.068-0.289-0.03-0.553,0.221-0.75
		c0.227-0.178,0.499-0.234,0.774-0.275C34.68,15.406,34.884,15.398,35.088,15.38z"/>
	<path fill-rule="evenodd" clip-rule="evenodd" fill="#FFFFFF" d="M17.347,15.399c0.146-0.007,0.293-0.018,0.439-0.019
		c0.142-0.002,0.19,0.046,0.188,0.186c-0.003,0.276-0.06,0.542-0.184,0.79c-0.152,0.306-0.416,0.458-0.743,0.502
		c-0.221,0.03-0.443,0.055-0.668,0.019c-0.303-0.048-0.48-0.237-0.5-0.543c-0.025-0.376,0.133-0.622,0.484-0.764
		C16.68,15.442,17.013,15.417,17.347,15.399z"/>
</g>
</svg>
