<?xml version="1.0" encoding="utf-8"?>
<!-- Generator: Adobe Illustrator 16.0.0, SVG Export Plug-In . SVG Version: 6.00 Build 0)  -->
<!DOCTYPE svg PUBLIC "-//W3C//DTD SVG 1.1//EN" "http://www.w3.org/Graphics/SVG/1.1/DTD/svg11.dtd">
<svg version="1.1" id="Layer_1" xmlns="http://www.w3.org/2000/svg" xmlns:xlink="http://www.w3.org/1999/xlink" x="0px" y="0px"
	 width="25px" height="25px" viewBox="37.5 37.5 25 25" enable-background="new 37.5 37.5 25 25" xml:space="preserve">
<g>
	<g>
		<path d="M47.01,52.689v-4.225c0-0.18-0.093-0.35-0.24-0.449c-0.4-0.269-0.642-0.713-0.642-1.194v-4.38
			c0-1.88,1.528-3.401,3.402-3.401h0.942c1.877,0,3.4,1.527,3.4,3.401v4.38c0,0.481-0.242,0.925-0.641,1.194
			c-0.152,0.099-0.24,0.269-0.24,0.449v4.225c0,0.283,0.158,0.535,0.411,0.659c0.552,0.271,3.456,1.737,6.127,3.933
			c0.368,0.303,0.576,0.747,0.576,1.223v3.002c0,0.3,0.24,0.54,0.541,0.54c0.302,0,0.542-0.24,0.542-0.54v-3.002
			c0-0.799-0.354-1.552-0.969-2.06c-2.536-2.082-5.264-3.523-6.145-3.973v-3.738c0.559-0.478,0.881-1.173,0.881-1.913v-4.38
			c0-2.476-2.017-4.487-4.484-4.487h-0.942c-2.476,0-4.486,2.016-4.486,4.487v4.38c0,0.74,0.324,1.435,0.882,1.913v3.738
			c-0.882,0.449-3.609,1.891-6.145,3.973c-0.618,0.503-0.969,1.256-0.969,2.06v3.002c0,0.3,0.242,0.54,0.542,0.54
			c0.301,0,0.542-0.24,0.542-0.54v-3.002c0-0.476,0.208-0.92,0.576-1.223c2.673-2.195,5.576-3.656,6.129-3.933
			C46.851,53.225,47.01,52.973,47.01,52.689z"/>
	</g>
</g>
</svg>
