<?xml version="1.0" encoding="utf-8"?>
<!-- Generator: Adobe Illustrator 16.0.0, SVG Export Plug-In . SVG Version: 6.00 Build 0)  -->
<!DOCTYPE svg PUBLIC "-//W3C//DTD SVG 1.1//EN" "http://www.w3.org/Graphics/SVG/1.1/DTD/svg11.dtd">
<svg version="1.1" id="Capa_1" xmlns="http://www.w3.org/2000/svg" xmlns:xlink="http://www.w3.org/1999/xlink" x="0px" y="0px"
	 width="25px" height="25px" viewBox="37.5 37.5 25 25" enable-background="new 37.5 37.5 25 25" xml:space="preserve">
<path d="M60.301,60.124l-6.069-6.31c1.549-1.554,2.507-3.693,2.507-6.054c0-4.729-3.848-8.576-8.576-8.576
	c-4.729,0-8.577,3.847-8.577,8.576c0,4.73,3.847,8.577,8.577,8.577c2.075,0,3.98-0.741,5.466-1.973l6.083,6.325
	c0.08,0.085,0.188,0.127,0.295,0.127c0.102,0,0.203-0.038,0.283-0.114C60.452,60.545,60.456,60.287,60.301,60.124z M48.162,55.521
	c-4.279,0-7.76-3.481-7.76-7.76c0-4.278,3.481-7.759,7.76-7.759s7.759,3.481,7.759,7.759C55.921,52.039,52.439,55.521,48.162,55.521
	z"/>
</svg>
